%FSLAX44Y44*%
%MOMM*%
G71*
G01*
G75*
G04 Layer_Color=8388736*
%ADD10R,0.7250X0.7000*%
%ADD11R,0.9000X0.8000*%
%ADD12R,0.6000X1.3500*%
%ADD13R,0.4000X1.3500*%
%ADD14C,0.2000*%
%ADD15C,1.5000*%
%ADD16R,1.5000X1.5000*%
%ADD17C,0.6000*%
%ADD18C,0.2540*%
%ADD19R,0.7050X0.6800*%
%ADD20R,0.8800X0.7800*%
%ADD21R,0.5800X1.3300*%
%ADD22R,0.3800X1.3300*%
%ADD23C,1.4800*%
%ADD24R,1.4800X1.4800*%
%ADD25C,0.5800*%
D19*
X560840Y946150D02*
D03*
X571590D02*
D03*
X582340D02*
D03*
X593090D02*
D03*
X560840Y960150D02*
D03*
X571590D02*
D03*
X582340D02*
D03*
X593090D02*
D03*
X659525Y930290D02*
D03*
X648775D02*
D03*
X638025D02*
D03*
X627275D02*
D03*
X659525Y916290D02*
D03*
X648775D02*
D03*
X638025D02*
D03*
X627275D02*
D03*
X659130Y1014080D02*
D03*
X648380D02*
D03*
X637630D02*
D03*
X626880D02*
D03*
X659130Y1000080D02*
D03*
X648380D02*
D03*
X637630D02*
D03*
X626880D02*
D03*
X558858Y1033780D02*
D03*
X569608D02*
D03*
X580358D02*
D03*
X591108D02*
D03*
X558858Y1047780D02*
D03*
X569608D02*
D03*
X580358D02*
D03*
X591108D02*
D03*
X558210Y1119527D02*
D03*
X568960D02*
D03*
X579710D02*
D03*
X590460D02*
D03*
X558210Y1133527D02*
D03*
X568960D02*
D03*
X579710D02*
D03*
X590460D02*
D03*
X557030Y1202070D02*
D03*
X567780D02*
D03*
X578530D02*
D03*
X589280D02*
D03*
X557030Y1216070D02*
D03*
X567780D02*
D03*
X578530D02*
D03*
X589280D02*
D03*
X655320Y1183670D02*
D03*
X644570D02*
D03*
X633820D02*
D03*
X623070D02*
D03*
X655320Y1169670D02*
D03*
X644570D02*
D03*
X633820D02*
D03*
X623070D02*
D03*
X654050Y1103630D02*
D03*
X643300D02*
D03*
X632550D02*
D03*
X621800D02*
D03*
X654050Y1089630D02*
D03*
X643300D02*
D03*
X632550D02*
D03*
X621800D02*
D03*
D20*
X591820Y1183050D02*
D03*
Y1169050D02*
D03*
X607060Y1183050D02*
D03*
Y1169050D02*
D03*
X659130Y1200800D02*
D03*
Y1214800D02*
D03*
X645160Y1200800D02*
D03*
Y1214800D02*
D03*
X596900Y915670D02*
D03*
Y929670D02*
D03*
X620440Y1134147D02*
D03*
Y1120147D02*
D03*
X569640Y1102397D02*
D03*
Y1088397D02*
D03*
X554400Y1102397D02*
D03*
Y1088397D02*
D03*
X590550Y1103010D02*
D03*
Y1089010D02*
D03*
X607060Y1103010D02*
D03*
Y1089010D02*
D03*
X642620Y1118220D02*
D03*
Y1132220D02*
D03*
X657860Y1118220D02*
D03*
Y1132220D02*
D03*
X569018Y1015380D02*
D03*
Y1001380D02*
D03*
X553778Y1015380D02*
D03*
Y1001380D02*
D03*
X627438Y1048400D02*
D03*
Y1034400D02*
D03*
X609658Y1048400D02*
D03*
Y1034400D02*
D03*
X593090Y999460D02*
D03*
Y1013460D02*
D03*
X609600Y999460D02*
D03*
Y1013460D02*
D03*
X664210Y1029940D02*
D03*
Y1043940D02*
D03*
X647700Y1029940D02*
D03*
Y1043940D02*
D03*
X573540Y930290D02*
D03*
Y916290D02*
D03*
X557030Y930290D02*
D03*
Y916290D02*
D03*
X662940Y947420D02*
D03*
Y961420D02*
D03*
X624340Y1201420D02*
D03*
Y1215420D02*
D03*
X606560Y1201420D02*
D03*
Y1215420D02*
D03*
X605200Y1134147D02*
D03*
Y1120147D02*
D03*
X626880Y959500D02*
D03*
Y945500D02*
D03*
X609100Y959500D02*
D03*
Y945500D02*
D03*
X610870Y915670D02*
D03*
Y929670D02*
D03*
X534670Y790560D02*
D03*
Y804560D02*
D03*
X551180Y790560D02*
D03*
Y804560D02*
D03*
X568960Y1186210D02*
D03*
Y1172210D02*
D03*
X554990Y1186210D02*
D03*
Y1172210D02*
D03*
X647700Y947420D02*
D03*
Y961420D02*
D03*
D21*
X571390Y827960D02*
D03*
X644890D02*
D03*
X571390Y886460D02*
D03*
X644890D02*
D03*
D22*
X578890Y827960D02*
D03*
X585390D02*
D03*
X591890D02*
D03*
X598390D02*
D03*
X604890D02*
D03*
X611390D02*
D03*
X617890D02*
D03*
X624390D02*
D03*
X630890D02*
D03*
X637390D02*
D03*
X578890Y886460D02*
D03*
X585390D02*
D03*
X591890D02*
D03*
X598390D02*
D03*
X604890D02*
D03*
X611390D02*
D03*
X617890D02*
D03*
X624390D02*
D03*
X630890D02*
D03*
X637390D02*
D03*
D23*
X577850Y800100D02*
D03*
X603250D02*
D03*
X628650D02*
D03*
D24*
X654050D02*
D03*
D25*
X656590Y897890D02*
D03*
X577850Y812800D02*
D03*
X585390Y814150D02*
D03*
X598170Y815340D02*
D03*
X568325Y813435D02*
D03*
X603250Y845820D02*
D03*
X586740Y915670D02*
D03*
X656590Y986790D02*
D03*
X665480Y1079500D02*
D03*
X664210Y1163320D02*
D03*
X607695Y870585D02*
D03*
X581660Y900430D02*
D03*
X595630Y873760D02*
D03*
X574040Y899160D02*
D03*
X621030Y840740D02*
D03*
X611390Y840220D02*
D03*
X594995Y841375D02*
D03*
X627380Y872490D02*
D03*
X617890Y873160D02*
D03*
X601980Y899160D02*
D03*
X591890Y900360D02*
D03*
X631190Y971550D02*
D03*
X609100Y969780D02*
D03*
X581690Y988060D02*
D03*
X636948Y1057910D02*
D03*
X609658Y1059122D02*
D03*
X629920Y1143000D02*
D03*
X601980Y1144270D02*
D03*
X590550Y1076960D02*
D03*
X581660Y1160780D02*
D03*
X634470Y1225550D02*
D03*
X606560Y1226320D02*
D03*
M02*
