%FSLAX44Y44*%
%MOMM*%
G71*
G01*
G75*
G04 Layer_Color=16711935*
%ADD10R,0.7250X0.7000*%
%ADD11R,0.9000X0.8000*%
%ADD12R,0.6000X1.3500*%
%ADD13R,0.4000X1.3500*%
%ADD14C,0.2000*%
%ADD15C,1.5000*%
%ADD16R,1.5000X1.5000*%
%ADD17C,0.6000*%
%ADD18C,0.2540*%
%ADD19R,0.7050X0.6800*%
%ADD20R,0.8800X0.7800*%
%ADD21R,0.5800X1.3300*%
%ADD22R,0.3800X1.3300*%
%ADD23C,1.4800*%
%ADD24R,1.4800X1.4800*%
%ADD25C,0.5800*%
D23*
X577850Y800100D02*
D03*
X603250D02*
D03*
X628650D02*
D03*
D24*
X654050D02*
D03*
D25*
X656590Y897890D02*
D03*
X577850Y812800D02*
D03*
X585390Y814150D02*
D03*
X598170Y815340D02*
D03*
X568325Y813435D02*
D03*
X603250Y845820D02*
D03*
X586740Y915670D02*
D03*
X656590Y986790D02*
D03*
X665480Y1079500D02*
D03*
X664210Y1163320D02*
D03*
X607695Y870585D02*
D03*
X581660Y900430D02*
D03*
X595630Y873760D02*
D03*
X574040Y899160D02*
D03*
X621030Y840740D02*
D03*
X611390Y840220D02*
D03*
X594995Y841375D02*
D03*
X627380Y872490D02*
D03*
X617890Y873160D02*
D03*
X601980Y899160D02*
D03*
X591890Y900360D02*
D03*
X631190Y971550D02*
D03*
X609100Y969780D02*
D03*
X581690Y988060D02*
D03*
X636948Y1057910D02*
D03*
X609658Y1059122D02*
D03*
X629920Y1143000D02*
D03*
X601980Y1144270D02*
D03*
X590550Y1076960D02*
D03*
X581660Y1160780D02*
D03*
X634470Y1225550D02*
D03*
X606560Y1226320D02*
D03*
M02*
