%FSLAX44Y44*%
%MOMM*%
G71*
G01*
G75*
G04 Layer_Physical_Order=2*
G04 Layer_Color=16711680*
%ADD10R,0.7250X0.7000*%
%ADD11R,0.9000X0.8000*%
%ADD12R,0.6000X1.3500*%
%ADD13R,0.4000X1.3500*%
%ADD14C,0.2000*%
%ADD15C,1.5000*%
%ADD16R,1.5000X1.5000*%
%ADD17C,0.6000*%
D14*
X627380Y1068070D02*
X636948Y1058502D01*
X601980Y1068070D02*
X627380D01*
X566420Y1032510D02*
X601980Y1068070D01*
X566420Y982980D02*
Y1032510D01*
Y982980D02*
X595630Y953770D01*
Y917065D02*
Y953770D01*
X588935Y910370D02*
X595630Y917065D01*
X578900Y910370D02*
X588935D01*
X574040Y905510D02*
X578900Y910370D01*
X574040Y899160D02*
Y905510D01*
X608272Y1059122D02*
X609658D01*
X574040Y1024890D02*
X608272Y1059122D01*
X574040Y982980D02*
Y1024890D01*
Y982980D02*
X603250Y953770D01*
Y918210D02*
Y953770D01*
X590700Y905660D02*
X603250Y918210D01*
X586890Y905660D02*
X590700D01*
X581660Y900430D02*
X586890Y905660D01*
X581690Y988060D02*
X594360Y975390D01*
Y969010D02*
Y975390D01*
Y969010D02*
X608330Y955040D01*
Y916800D02*
Y955040D01*
X591890Y900360D02*
X608330Y916800D01*
X612140Y986790D02*
X656590D01*
X600710Y975360D02*
X612140Y986790D01*
X600710Y967740D02*
Y975360D01*
Y967740D02*
X615950Y952500D01*
Y911860D02*
Y952500D01*
X603250Y899160D02*
X615950Y911860D01*
X601980Y899160D02*
X603250D01*
X609100Y969780D02*
X623570Y955310D01*
Y899160D02*
Y955310D01*
X612140Y887730D02*
X623570Y899160D01*
X595630Y887730D02*
X612140D01*
X582930Y875030D02*
X595630Y887730D01*
X582930Y868680D02*
Y875030D01*
Y868680D02*
X589280Y862330D01*
X599440D01*
X607695Y870585D01*
X631190Y897890D02*
Y971550D01*
X615950Y882650D02*
X631190Y897890D01*
X604520Y882650D02*
X615950D01*
X595630Y873760D02*
X604520Y882650D01*
X568960Y915670D02*
X586740D01*
X556260Y902970D02*
X568960Y915670D01*
X556260Y861060D02*
Y902970D01*
Y861060D02*
X563880Y853440D01*
X605790D01*
X617820Y865470D01*
X617890D01*
Y873160D01*
X656590Y886460D02*
Y897890D01*
X642620Y872490D02*
X656590Y886460D01*
X627380Y872490D02*
X642620D01*
X641350Y1163320D02*
X664210D01*
X627380Y1177290D02*
X641350Y1163320D01*
X627380Y1177290D02*
Y1217930D01*
X613410Y1231900D02*
X627380Y1217930D01*
X572770Y1231900D02*
X613410D01*
X549910Y1209040D02*
X572770Y1231900D01*
X549910Y1173480D02*
Y1209040D01*
Y1173480D02*
X571500Y1151890D01*
X604520D01*
X610110Y1146300D01*
X555670Y1143680D02*
X601390D01*
X610110Y1087630D02*
Y1146300D01*
X551180Y1028700D02*
X610110Y1087630D01*
X551180Y855980D02*
Y1028700D01*
Y855980D02*
X565785Y841375D01*
X594995D01*
X581660Y1160780D02*
X605790D01*
X613410Y1153160D01*
Y1126490D02*
Y1153160D01*
Y1126490D02*
X641350Y1098550D01*
Y1078230D02*
Y1098550D01*
Y1078230D02*
X666750Y1052830D01*
Y866140D02*
Y1052830D01*
X655320Y854710D02*
X666750Y866140D01*
X612140Y854710D02*
X655320D01*
X603250Y845820D02*
X612140Y854710D01*
X606560Y1226320D02*
X617220Y1215660D01*
Y1132840D02*
Y1215660D01*
Y1132840D02*
X648970Y1101090D01*
Y1076960D02*
Y1101090D01*
Y1076960D02*
X671830Y1054100D01*
Y863600D02*
Y1054100D01*
X657860Y849630D02*
X671830Y863600D01*
X620800Y849630D02*
X657860D01*
X611390Y840220D02*
X620800Y849630D01*
X634470Y1225550D02*
X650240D01*
X679450Y1196340D01*
Y1163320D02*
Y1196340D01*
X670560Y1154430D02*
X679450Y1163320D01*
X629920Y1154430D02*
X670560D01*
X622300Y1146810D02*
X629920Y1154430D01*
X622300Y1135380D02*
Y1146810D01*
Y1135380D02*
X654050Y1103630D01*
Y1080770D02*
Y1103630D01*
Y1080770D02*
X675640Y1059180D01*
Y853440D02*
Y1059180D01*
X662940Y840740D02*
X675640Y853440D01*
X621030Y840740D02*
X662940D01*
X629920Y1143000D02*
X656590D01*
X689610Y1109980D01*
Y835660D02*
Y1109980D01*
X669290Y815340D02*
X689610Y835660D01*
X598170Y815340D02*
X669290D01*
X533400Y1121410D02*
X555670Y1143680D01*
X533400Y810260D02*
Y1121410D01*
Y810260D02*
X556260Y787400D01*
X584200D01*
X590550Y793750D01*
Y808990D01*
X585390Y814150D02*
X590550Y808990D01*
X546100Y1032510D02*
X590550Y1076960D01*
X546100Y815340D02*
Y1032510D01*
Y815340D02*
X557530Y803910D01*
X567801D01*
X576691Y812800D01*
X577850D01*
X680720Y849630D02*
Y1064260D01*
X660400Y829310D02*
X680720Y849630D01*
X574040Y829310D02*
X660400D01*
X665480Y1079500D02*
X680720Y1064260D01*
X568325Y823595D02*
X574040Y829310D01*
X568325Y813435D02*
Y823595D01*
D15*
X577850Y800100D02*
D03*
X603250D02*
D03*
X628650D02*
D03*
D16*
X654050D02*
D03*
D17*
X656590Y897890D02*
D03*
X577850Y812800D02*
D03*
X585390Y814150D02*
D03*
X598170Y815340D02*
D03*
X568325Y813435D02*
D03*
X603250Y845820D02*
D03*
X586740Y915670D02*
D03*
X656590Y986790D02*
D03*
X665480Y1079500D02*
D03*
X664210Y1163320D02*
D03*
X607695Y870585D02*
D03*
X581660Y900430D02*
D03*
X595630Y873760D02*
D03*
X574040Y899160D02*
D03*
X621030Y840740D02*
D03*
X611390Y840220D02*
D03*
X594995Y841375D02*
D03*
X627380Y872490D02*
D03*
X617890Y873160D02*
D03*
X601980Y899160D02*
D03*
X591890Y900360D02*
D03*
X631190Y971550D02*
D03*
X609100Y969780D02*
D03*
X581690Y988060D02*
D03*
X636948Y1057910D02*
D03*
X609658Y1059122D02*
D03*
X629920Y1143000D02*
D03*
X601980Y1144270D02*
D03*
X590550Y1076960D02*
D03*
X581660Y1160780D02*
D03*
X634470Y1225550D02*
D03*
X606560Y1226320D02*
D03*
M02*
