%FSLAX44Y44*%
%MOMM*%
G71*
G01*
G75*
G04 Layer_Physical_Order=1*
G04 Layer_Color=255*
%ADD10R,0.7250X0.7000*%
%ADD11R,0.9000X0.8000*%
%ADD12R,0.6000X1.3500*%
%ADD13R,0.4000X1.3500*%
%ADD14C,0.2000*%
%ADD15C,1.5000*%
%ADD16R,1.5000X1.5000*%
%ADD17C,0.6000*%
D10*
X560840Y946150D02*
D03*
X571590D02*
D03*
X582340D02*
D03*
X593090D02*
D03*
X560840Y960150D02*
D03*
X571590D02*
D03*
X582340D02*
D03*
X593090D02*
D03*
X659525Y930290D02*
D03*
X648775D02*
D03*
X638025D02*
D03*
X627275D02*
D03*
X659525Y916290D02*
D03*
X648775D02*
D03*
X638025D02*
D03*
X627275D02*
D03*
X659130Y1014080D02*
D03*
X648380D02*
D03*
X637630D02*
D03*
X626880D02*
D03*
X659130Y1000080D02*
D03*
X648380D02*
D03*
X637630D02*
D03*
X626880D02*
D03*
X558858Y1033780D02*
D03*
X569608D02*
D03*
X580358D02*
D03*
X591108D02*
D03*
X558858Y1047780D02*
D03*
X569608D02*
D03*
X580358D02*
D03*
X591108D02*
D03*
X558210Y1119527D02*
D03*
X568960D02*
D03*
X579710D02*
D03*
X590460D02*
D03*
X558210Y1133527D02*
D03*
X568960D02*
D03*
X579710D02*
D03*
X590460D02*
D03*
X557030Y1202070D02*
D03*
X567780D02*
D03*
X578530D02*
D03*
X589280D02*
D03*
X557030Y1216070D02*
D03*
X567780D02*
D03*
X578530D02*
D03*
X589280D02*
D03*
X655320Y1183670D02*
D03*
X644570D02*
D03*
X633820D02*
D03*
X623070D02*
D03*
X655320Y1169670D02*
D03*
X644570D02*
D03*
X633820D02*
D03*
X623070D02*
D03*
X654050Y1103630D02*
D03*
X643300D02*
D03*
X632550D02*
D03*
X621800D02*
D03*
X654050Y1089630D02*
D03*
X643300D02*
D03*
X632550D02*
D03*
X621800D02*
D03*
D11*
X591820Y1183050D02*
D03*
Y1169050D02*
D03*
X607060Y1183050D02*
D03*
Y1169050D02*
D03*
X659130Y1200800D02*
D03*
Y1214800D02*
D03*
X645160Y1200800D02*
D03*
Y1214800D02*
D03*
X596900Y915670D02*
D03*
Y929670D02*
D03*
X620440Y1134147D02*
D03*
Y1120147D02*
D03*
X569640Y1102397D02*
D03*
Y1088397D02*
D03*
X554400Y1102397D02*
D03*
Y1088397D02*
D03*
X590550Y1103010D02*
D03*
Y1089010D02*
D03*
X607060Y1103010D02*
D03*
Y1089010D02*
D03*
X642620Y1118220D02*
D03*
Y1132220D02*
D03*
X657860Y1118220D02*
D03*
Y1132220D02*
D03*
X569018Y1015380D02*
D03*
Y1001380D02*
D03*
X553778Y1015380D02*
D03*
Y1001380D02*
D03*
X627438Y1048400D02*
D03*
Y1034400D02*
D03*
X609658Y1048400D02*
D03*
Y1034400D02*
D03*
X593090Y999460D02*
D03*
Y1013460D02*
D03*
X609600Y999460D02*
D03*
Y1013460D02*
D03*
X664210Y1029940D02*
D03*
Y1043940D02*
D03*
X647700Y1029940D02*
D03*
Y1043940D02*
D03*
X573540Y930290D02*
D03*
Y916290D02*
D03*
X557030Y930290D02*
D03*
Y916290D02*
D03*
X662940Y947420D02*
D03*
Y961420D02*
D03*
X624340Y1201420D02*
D03*
Y1215420D02*
D03*
X606560Y1201420D02*
D03*
Y1215420D02*
D03*
X605200Y1134147D02*
D03*
Y1120147D02*
D03*
X626880Y959500D02*
D03*
Y945500D02*
D03*
X609100Y959500D02*
D03*
Y945500D02*
D03*
X610870Y915670D02*
D03*
Y929670D02*
D03*
X534670Y790560D02*
D03*
Y804560D02*
D03*
X551180Y790560D02*
D03*
Y804560D02*
D03*
X568960Y1186210D02*
D03*
Y1172210D02*
D03*
X554990Y1186210D02*
D03*
Y1172210D02*
D03*
X647700Y947420D02*
D03*
Y961420D02*
D03*
D12*
X571390Y827960D02*
D03*
X644890D02*
D03*
X571390Y886460D02*
D03*
X644890D02*
D03*
D13*
X578890Y827960D02*
D03*
X585390D02*
D03*
X591890D02*
D03*
X598390D02*
D03*
X604890D02*
D03*
X611390D02*
D03*
X617890D02*
D03*
X624390D02*
D03*
X630890D02*
D03*
X637390D02*
D03*
X578890Y886460D02*
D03*
X585390D02*
D03*
X591890D02*
D03*
X598390D02*
D03*
X604890D02*
D03*
X611390D02*
D03*
X617890D02*
D03*
X624390D02*
D03*
X630890D02*
D03*
X637390D02*
D03*
D14*
X534670Y893930D02*
X557030Y916290D01*
X534670Y804560D02*
Y893930D01*
X605200Y1134147D02*
X605790Y1134737D01*
Y1140460D01*
X601980Y1144270D02*
X605790Y1140460D01*
X656590Y986790D02*
X664210D01*
X668020Y990600D01*
X578890Y813840D02*
Y827960D01*
X593090Y815340D02*
X595630D01*
X591890Y816540D02*
X593090Y815340D01*
X591890Y816540D02*
Y827960D01*
X568325Y813435D02*
X571390Y816500D01*
X603250Y840740D02*
Y845820D01*
X637390Y847453D02*
Y886460D01*
X579120Y864870D02*
X637390D01*
X571390Y872600D02*
X579120Y864870D01*
X595630Y873760D02*
X601980D01*
X659130Y1200800D02*
X674370Y1185560D01*
Y1134730D02*
Y1185560D01*
X657860Y1118220D02*
X674370Y1134730D01*
X586740Y915670D02*
X596900D01*
X657860Y897890D02*
X669650Y909680D01*
Y916940D01*
X663755Y922835D02*
X669650Y916940D01*
X655320Y922835D02*
X663755D01*
X648775Y916290D02*
X655320Y922835D01*
X659525Y930290D02*
X663560D01*
X675640Y918210D01*
Y904240D02*
Y918210D01*
X657860Y886460D02*
X675640Y904240D01*
Y960120D02*
Y1007110D01*
X662940Y947420D02*
X675640Y960120D01*
X668670Y1014080D02*
X675640Y1007110D01*
X668020Y990600D02*
Y1002030D01*
X663030Y1007020D02*
X668020Y1002030D01*
X655320Y1007020D02*
X663030D01*
X659130Y1014080D02*
X668670D01*
X648380Y1000080D02*
X655320Y1007020D01*
X665480Y1079500D02*
Y1092200D01*
X662250Y1095430D02*
X665480Y1092200D01*
X649472Y1095430D02*
X662250D01*
X669290Y1103630D02*
X678180Y1094740D01*
X654050Y1103630D02*
X669290D01*
X643672Y1089630D02*
X649472Y1095430D01*
X643300Y1089630D02*
X643672D01*
X664210Y1163320D02*
Y1171158D01*
X659898Y1175470D02*
X664210Y1171158D01*
X650742Y1175470D02*
X659898D01*
X644942Y1169670D02*
X650742Y1175470D01*
X644570Y1169670D02*
X644942D01*
X626880Y960120D02*
Y967240D01*
Y959500D02*
Y960120D01*
Y967240D02*
X631190Y971550D01*
X609100Y959500D02*
Y969780D01*
X581690Y988060D02*
X593090Y999460D01*
X627438Y1048400D02*
X636948Y1057910D01*
X609658Y1048400D02*
Y1059122D01*
X654050Y1089012D02*
Y1089630D01*
X590550Y1076960D02*
Y1089010D01*
X621067Y1134147D02*
X629920Y1143000D01*
X620440Y1134147D02*
X621067D01*
X620440D02*
Y1139780D01*
X581660Y1160780D02*
X589930Y1169050D01*
X591820D01*
X624340Y1215420D02*
X634470Y1225550D01*
X607695Y870585D02*
X611390Y874280D01*
Y886460D01*
X581660Y900430D02*
X585390Y896700D01*
Y886460D02*
Y896700D01*
X606560Y1215420D02*
Y1226320D01*
X574040Y899160D02*
X578890Y894310D01*
Y886460D02*
Y894310D01*
X644890Y886460D02*
X657860D01*
X624390Y875480D02*
X627380Y872490D01*
X624390Y875480D02*
Y886460D01*
X617890Y873160D02*
Y886460D01*
X601980Y873760D02*
X604890Y876670D01*
Y886460D01*
X598390Y895570D02*
X601980Y899160D01*
X598390Y886460D02*
Y895570D01*
X617890Y837600D02*
X621030Y840740D01*
X617890Y827960D02*
Y837600D01*
X611390Y827960D02*
Y840220D01*
X603250Y840740D02*
X604890Y839100D01*
Y827960D02*
Y839100D01*
X594995Y841375D02*
X598390Y837980D01*
Y827960D02*
Y837980D01*
X585390Y814150D02*
Y827960D01*
X591890Y886460D02*
Y900360D01*
X571390Y816500D02*
Y827960D01*
X624340Y1215420D02*
Y1224780D01*
X613410Y1235710D02*
X624340Y1224780D01*
X656590Y1240790D02*
X670560Y1226820D01*
X561340Y1240790D02*
X656590D01*
X547370Y1226820D02*
X561340Y1240790D01*
X574160Y1235710D02*
X613410D01*
X557030Y1218580D02*
X574160Y1235710D01*
X609600Y1150620D02*
X620440Y1139780D01*
X574685Y1150620D02*
X609600D01*
X558210Y1134145D02*
X574685Y1150620D01*
X549910Y1141730D02*
X562610Y1154430D01*
X674370D01*
X637758Y1162240D02*
X644570Y1169052D01*
X613870Y1162240D02*
X637758D01*
X607060Y1169050D02*
X613870Y1162240D01*
X644508Y1158240D02*
X655320Y1169052D01*
X602630Y1158240D02*
X644508D01*
X591820Y1169050D02*
X602630Y1158240D01*
X627438Y1048400D02*
Y1052772D01*
X614680Y1065530D02*
X627438Y1052772D01*
X575990Y1065530D02*
X614680D01*
X570230Y800100D02*
X577850D01*
X558800Y811530D02*
X570230Y800100D01*
X558800Y811530D02*
Y873870D01*
X571390Y886460D01*
X624390Y834453D02*
X637390Y847453D01*
X624390Y827960D02*
Y834453D01*
X630890Y827960D02*
X631190Y827660D01*
Y820420D02*
Y827660D01*
X628650Y800400D02*
X637390Y809140D01*
Y827960D01*
X622600Y811830D02*
X631190Y820420D01*
X614680Y811530D02*
X622300D01*
X603250Y800100D02*
X614680Y811530D01*
X592750Y789600D02*
X603250Y800100D01*
X552140Y789600D02*
X592750D01*
X551180Y790560D02*
X552140Y789600D01*
X612110Y783560D02*
X628650Y800100D01*
X545437Y783560D02*
X612110D01*
X538437Y790560D02*
X545437Y783560D01*
X534670Y790560D02*
X538437D01*
X644890Y827960D02*
X654050Y818800D01*
Y787120D02*
Y818800D01*
X534670Y804560D02*
X551180D01*
X525500Y795390D02*
X534670Y804560D01*
X525500Y783590D02*
Y795390D01*
Y783590D02*
X529590Y779500D01*
X646430D01*
X654050Y787120D01*
X571390Y872600D02*
Y886460D01*
X646013Y902160D02*
X659525Y915672D01*
X610410Y902160D02*
X646013D01*
X596900Y915670D02*
X610410Y902160D01*
X637390Y886460D02*
X644890D01*
X567690Y980440D02*
X675640D01*
X552450Y965200D02*
X567690Y980440D01*
X552450Y954540D02*
Y965200D01*
Y954540D02*
X560840Y946150D01*
X678180Y1070610D02*
Y1094740D01*
Y1043910D02*
Y1070610D01*
X563880D02*
X678180D01*
X551180Y1057910D02*
X563880Y1070610D01*
X640538Y1075500D02*
X654050Y1089012D01*
X604060Y1075500D02*
X640538D01*
X590550Y1089010D02*
X604060Y1075500D01*
X551180Y1041458D02*
Y1057910D01*
Y1041458D02*
X558858Y1033780D01*
X547370Y1211730D02*
X557030Y1202070D01*
X547370Y1211730D02*
Y1226820D01*
X670560Y1212230D02*
Y1226820D01*
X659130Y1200800D02*
X670560Y1212230D01*
X664210Y1029940D02*
X678180Y1043910D01*
X549910Y1127827D02*
X558210Y1119527D01*
X549910Y1127827D02*
Y1141730D01*
X542290Y931030D02*
X557030Y916290D01*
X542290Y931030D02*
Y989892D01*
X553778Y1001380D01*
X541020Y1014138D02*
X553778Y1001380D01*
X541020Y1014138D02*
Y1075017D01*
X554400Y1088397D01*
X541020Y1101777D02*
X554400Y1088397D01*
X541020Y1101777D02*
Y1158240D01*
X554990Y1172210D01*
X593090Y946150D02*
X626230D01*
X597520Y930290D02*
X627275D01*
X609100Y932060D02*
Y945500D01*
X609658Y1033780D02*
X626818D01*
X591108D02*
X609658D01*
X593710Y1014080D02*
X626880D01*
X609658Y1033780D02*
Y1034400D01*
Y1014138D02*
Y1033780D01*
X605200Y1119527D02*
X619820D01*
X590460D02*
X605200D01*
X591170Y1103630D02*
X621800D01*
X605200Y1119527D02*
Y1120147D01*
Y1104870D02*
Y1119527D01*
X589280Y1202070D02*
X620770D01*
X607060Y1183670D02*
X623070D01*
X592440D02*
X607060D01*
Y1201570D01*
Y1183050D02*
Y1183670D01*
X554990Y1200030D02*
X557030Y1202070D01*
X554990Y1186210D02*
Y1200030D01*
Y1186210D02*
X568960D01*
X578530Y1179890D02*
Y1202070D01*
X570850Y1172210D02*
X578530Y1179890D01*
X568960Y1172210D02*
X570850D01*
X554990D02*
X568960D01*
X655320Y1169052D02*
Y1169670D01*
X623070Y1183670D02*
X633820D01*
Y1203460D01*
X645160Y1214800D01*
X659130D01*
X623070Y1170320D02*
X629920Y1177170D01*
X638688D01*
X644570Y1183052D01*
Y1183670D01*
X655320D02*
X659130Y1187480D01*
Y1200800D01*
X645160D02*
X659130D01*
X583578Y1126027D02*
X590460Y1132909D01*
X574842Y1126027D02*
X583578D01*
X568960Y1120145D02*
X574842Y1126027D01*
X568960Y1119527D02*
Y1120145D01*
X554400Y1115717D02*
X558210Y1119527D01*
X554400Y1102397D02*
Y1115717D01*
Y1102397D02*
X569640D01*
X558210Y1133527D02*
Y1134145D01*
X568960D02*
X578472Y1143657D01*
X595690D01*
X605200Y1134147D01*
X579710Y1119527D02*
X590460D01*
X579710Y1098467D02*
Y1119527D01*
X569640Y1088397D02*
X579710Y1098467D01*
X554400Y1088397D02*
X569640D01*
X621800Y1090280D02*
X628650Y1097130D01*
X637418D01*
X643300Y1103012D01*
Y1103630D01*
X657860Y1107440D02*
Y1118220D01*
X642620D02*
X657860D01*
X621800Y1103630D02*
X632550D01*
Y1126580D01*
X638190Y1132220D01*
X642620D01*
X657860D01*
X607060Y1089010D02*
X616570Y1079500D01*
X633730D01*
X637360Y1083130D01*
X637418D01*
X643300Y1089012D01*
Y1089630D01*
X584225Y1040280D02*
X591108Y1047162D01*
X575490Y1040280D02*
X584225D01*
X569608Y1034398D02*
X575490Y1040280D01*
X569608Y1033780D02*
Y1034398D01*
X598878Y1059180D02*
X609658Y1048400D01*
X580390Y1059180D02*
X598878D01*
X569608Y1048398D02*
X580390Y1059180D01*
X569608Y1047780D02*
Y1048398D01*
X558858D02*
X575990Y1065530D01*
X558858Y1047780D02*
Y1048398D01*
X553778Y1028700D02*
X558858Y1033780D01*
X553778Y1015380D02*
Y1028700D01*
Y1015380D02*
X569018D01*
X553778Y1001380D02*
X569018D01*
X580358Y1012720D01*
Y1033780D01*
X626880Y1000880D02*
X633580Y1007580D01*
X642498D01*
X648380Y1013462D01*
Y1014080D01*
X647700Y1029940D02*
X664210D01*
Y1019160D02*
Y1029940D01*
X659130Y1014080D02*
X664210Y1019160D01*
X659130Y999462D02*
Y1000080D01*
X646238Y986570D02*
X659130Y999462D01*
X602820Y986570D02*
X646238D01*
X593090Y996300D02*
X602820Y986570D01*
X593090Y996300D02*
Y999460D01*
X648380Y999462D02*
Y1000080D01*
X639488Y990570D02*
X648380Y999462D01*
X618490Y990570D02*
X639488D01*
X609600Y999460D02*
X618490Y990570D01*
X626880Y1014080D02*
X637630D01*
Y1038300D01*
X643270Y1043940D01*
X647700D01*
X664210D01*
X571590Y948008D02*
X577352Y953770D01*
X577472Y953650D01*
X587208D01*
X593090Y959532D01*
Y960150D01*
X560840Y960768D02*
X575432Y975360D01*
X611640D01*
X626880Y960120D01*
X571590Y960768D02*
X581102Y970280D01*
X598320D01*
X609100Y959500D01*
X557030Y916290D02*
X573540D01*
X582340Y925090D01*
Y946150D01*
X557030Y930290D02*
Y942340D01*
Y930290D02*
X573540D01*
X582340Y946150D02*
X593090D01*
X647700Y947420D02*
X662940D01*
X659525Y944005D02*
X662940Y947420D01*
X659525Y930290D02*
Y944005D01*
X642620Y906160D02*
X648775Y912315D01*
X620380Y906160D02*
X642620D01*
X610870Y915670D02*
X620380Y906160D01*
X627275Y930290D02*
X638025D01*
X642893Y923790D02*
X648775Y929672D01*
X633097Y923790D02*
X642893D01*
X627275Y917968D02*
X633097Y923790D01*
X627275Y916290D02*
Y917968D01*
X638025Y930290D02*
Y956175D01*
X643270Y961420D01*
X647700D01*
X662940D01*
X567780Y1202688D02*
X573662Y1208570D01*
X582430D01*
X589280Y1215420D01*
Y1216070D01*
X557030D02*
Y1218580D01*
X567780Y1216688D02*
X577292Y1226200D01*
X595780D01*
X606560Y1215420D01*
X578530Y1202070D02*
X589280D01*
D15*
X577850Y800100D02*
D03*
X603250D02*
D03*
X628650D02*
D03*
D16*
X654050D02*
D03*
D17*
X656590Y897890D02*
D03*
X577850Y812800D02*
D03*
X585390Y814150D02*
D03*
X598170Y815340D02*
D03*
X568325Y813435D02*
D03*
X603250Y845820D02*
D03*
X586740Y915670D02*
D03*
X656590Y986790D02*
D03*
X665480Y1079500D02*
D03*
X664210Y1163320D02*
D03*
X607695Y870585D02*
D03*
X581660Y900430D02*
D03*
X595630Y873760D02*
D03*
X574040Y899160D02*
D03*
X621030Y840740D02*
D03*
X611390Y840220D02*
D03*
X594995Y841375D02*
D03*
X627380Y872490D02*
D03*
X617890Y873160D02*
D03*
X601980Y899160D02*
D03*
X591890Y900360D02*
D03*
X631190Y971550D02*
D03*
X609100Y969780D02*
D03*
X581690Y988060D02*
D03*
X636948Y1057910D02*
D03*
X609658Y1059122D02*
D03*
X629920Y1143000D02*
D03*
X601980Y1144270D02*
D03*
X590550Y1076960D02*
D03*
X581660Y1160780D02*
D03*
X634470Y1225550D02*
D03*
X606560Y1226320D02*
D03*
M02*
