M48
;Layer_Color=9474304
;FILE_FORMAT=4:4
METRIC,LZ
;TYPE=PLATED
T1F00S00C0.3000
T2F00S00C0.9000
%
T01
X00568325Y00813435
X0057785Y008128
X0058539Y0081415
X0059817Y0081534
X00594995Y00841375
X0060325Y0084582
X0061139Y0084022
X0062103Y0084074
X0061789Y0087316
X0062738Y0087249
X00607695Y00870585
X0059563Y0087376
X0059189Y0090036
X0058166Y0090043
X0057404Y0089916
X0060198
X0058674Y0091567
X006091Y0096978
X0063119Y0097155
X0065659Y0098679
X0058169Y0098806
X0059055Y0107696
X00609658Y01059122
X00636948Y0105791
X0066548Y010795
X0066421Y0116332
X0062992Y01143
X0060198Y0114427
X0058166Y0116078
X0065659Y0089789
X0063447Y0122555
X0060656Y0122632
T02
X0057785Y008001
X0060325
X0062865
X0065405
M30
