%FSLAX44Y44*%
%MOMM*%
G71*
G01*
G75*
G04 Layer_Color=16711935*
%ADD10R,1.0000X0.7250*%
%ADD11R,0.8000X0.9000*%
%ADD12R,0.6000X1.3500*%
%ADD13R,0.4000X1.3500*%
%ADD14C,0.5000*%
%ADD15C,0.2540*%
%ADD16C,0.2000*%
%ADD17R,1.5000X1.5000*%
%ADD18C,1.5000*%
%ADD19C,0.6000*%
%ADD20R,0.9800X0.7050*%
%ADD21R,0.7800X0.8800*%
%ADD22R,0.5800X1.3300*%
%ADD23R,0.3800X1.3300*%
%ADD24R,1.4800X1.4800*%
%ADD25C,1.4800*%
%ADD26C,0.5800*%
%ADD27C,0.1524*%
D15*
X695000Y690880D02*
Y770960D01*
X521000Y690880D02*
Y770960D01*
X675288Y693420D02*
X695000D01*
X521000D02*
X532584D01*
X679760Y698500D02*
X695000Y693420D01*
X679760Y688340D02*
X695000Y693420D01*
X521000D02*
X536240Y688340D01*
X521000Y693420D02*
X536240Y698500D01*
X403860Y1249000D02*
X516960D01*
X403860Y775000D02*
X516960D01*
X406400Y1080558D02*
Y1249000D01*
Y775000D02*
Y935314D01*
X401320Y1233760D02*
X406400Y1249000D01*
X411480Y1233760D01*
X406400Y775000D02*
X411480Y790240D01*
X401320D02*
X406400Y775000D01*
D27*
X536648Y681739D02*
X541726D01*
X539187D01*
Y696974D01*
X536648Y694435D01*
X549344Y696974D02*
X559500D01*
Y694435D01*
X549344Y684278D01*
Y681739D01*
X564579D02*
Y684278D01*
X567118D01*
Y681739D01*
X564579D01*
X584892D02*
Y696974D01*
X577275Y689357D01*
X587431D01*
X592510Y694435D02*
X595049Y696974D01*
X600127D01*
X602666Y694435D01*
Y684278D01*
X600127Y681739D01*
X595049D01*
X592510Y684278D01*
Y694435D01*
X607745Y691896D02*
Y684278D01*
X610284Y681739D01*
X617901D01*
Y679200D01*
X615362Y676661D01*
X612823D01*
X617901Y681739D02*
Y691896D01*
X628058Y681739D02*
X622980Y686818D01*
Y691896D01*
X628058Y696974D01*
X635676Y681739D02*
Y691896D01*
X638215D01*
X640754Y689357D01*
Y681739D01*
Y689357D01*
X643293Y691896D01*
X645832Y689357D01*
Y681739D01*
X650911D02*
Y691896D01*
X653450D01*
X655989Y689357D01*
Y681739D01*
Y689357D01*
X658528Y691896D01*
X661068Y689357D01*
Y681739D01*
X666146D02*
X671224Y686818D01*
Y691896D01*
X666146Y696974D01*
X418081Y946996D02*
X402846D01*
X410463Y939378D01*
Y949535D01*
X402846Y954613D02*
Y964770D01*
X405385D01*
X415541Y954613D01*
X418081D01*
Y969848D02*
X415541D01*
Y972387D01*
X418081D01*
Y969848D01*
Y990162D02*
X402846D01*
X410463Y982544D01*
Y992701D01*
X405385Y997779D02*
X402846Y1000319D01*
Y1005397D01*
X405385Y1007936D01*
X415541D01*
X418081Y1005397D01*
Y1000319D01*
X415541Y997779D01*
X405385D01*
X407924Y1013014D02*
X415541D01*
X418081Y1015554D01*
Y1023171D01*
X420620D01*
X423159Y1020632D01*
Y1018093D01*
X418081Y1023171D02*
X407924D01*
X418081Y1033328D02*
X413002Y1028249D01*
X407924D01*
X402846Y1033328D01*
X418081Y1040945D02*
X407924D01*
Y1043484D01*
X410463Y1046024D01*
X418081D01*
X410463D01*
X407924Y1048563D01*
X410463Y1051102D01*
X418081D01*
Y1056180D02*
X407924D01*
Y1058720D01*
X410463Y1061259D01*
X418081D01*
X410463D01*
X407924Y1063798D01*
X410463Y1066337D01*
X418081D01*
Y1071415D02*
X413002Y1076494D01*
X407924D01*
X402846Y1071415D01*
M02*
