%FSLAX44Y44*%
%MOMM*%
G71*
G01*
G75*
G04 Layer_Physical_Order=1*
G04 Layer_Color=255*
%ADD10R,1.0000X0.7250*%
%ADD11R,0.8000X0.9000*%
%ADD12R,0.6000X1.3500*%
%ADD13R,0.4000X1.3500*%
%ADD14C,0.5000*%
%ADD15C,0.2540*%
%ADD16C,0.2000*%
%ADD17R,1.5000X1.5000*%
%ADD18C,1.5000*%
%ADD19C,0.6000*%
G36*
X692145Y777855D02*
X523855D01*
Y793030D01*
X524910D01*
Y793030D01*
X534941D01*
X540449Y787522D01*
X541210Y787013D01*
X542107Y786835D01*
X542107Y786835D01*
X627890D01*
X627890Y786835D01*
X628787Y787013D01*
X629548Y787522D01*
X639676Y797650D01*
X653960D01*
Y815250D01*
X639676D01*
X631995Y822931D01*
Y831340D01*
X633950D01*
Y847440D01*
X615150D01*
Y850140D01*
X611150D01*
Y839390D01*
Y828640D01*
X611574D01*
X612060Y827467D01*
X598750Y814157D01*
X596657Y815023D01*
X594360Y815326D01*
X592063Y815023D01*
X589922Y814137D01*
X588084Y812726D01*
X586673Y810888D01*
X585787Y808747D01*
X585484Y806450D01*
X585787Y804153D01*
X586653Y802060D01*
X583229Y798635D01*
X578895D01*
X578333Y799774D01*
X579005Y800650D01*
X580164Y803448D01*
X580559Y806450D01*
X580164Y809452D01*
X579005Y812250D01*
X577162Y814652D01*
X574760Y816495D01*
X571962Y817654D01*
X568960Y818049D01*
X565958Y817654D01*
X563160Y816495D01*
X560758Y814652D01*
X558915Y812250D01*
X557756Y809452D01*
X557438Y807039D01*
X556236Y806631D01*
X549510Y813356D01*
Y821140D01*
X538910D01*
Y809540D01*
X546693D01*
X560235Y795998D01*
X559749Y794825D01*
X551531D01*
X549510Y796846D01*
Y804630D01*
X538910D01*
Y797353D01*
X537737Y796867D01*
X535510Y799094D01*
Y804630D01*
X532555D01*
Y809540D01*
X535510D01*
Y821140D01*
X532555D01*
Y978566D01*
X535749Y981760D01*
X543532D01*
D01*
X543532D01*
X544232Y981060D01*
Y979060D01*
X550232D01*
Y987560D01*
X554232D01*
Y979060D01*
X560232D01*
Y988985D01*
X560262D01*
Y988985D01*
X562359D01*
X562958Y987865D01*
X562512Y987198D01*
X562178Y985520D01*
X562512Y983842D01*
X563462Y982420D01*
X564884Y981469D01*
X566562Y981136D01*
X568240Y981469D01*
X569662Y982420D01*
X570613Y983842D01*
X570947Y985520D01*
X570613Y987198D01*
X570167Y987865D01*
X570766Y988985D01*
X572862D01*
Y998835D01*
X572862D01*
X572862Y999735D01*
X572862Y999735D01*
Y999735D01*
Y1009257D01*
X574036Y1009743D01*
X577262Y1006516D01*
Y1001535D01*
X574562D01*
Y995910D01*
X592562D01*
Y1001535D01*
X589862D01*
Y1009585D01*
X589862D01*
X589862Y1010485D01*
X589862Y1010485D01*
Y1010485D01*
Y1020335D01*
X589862D01*
X589862Y1021235D01*
X589862Y1021235D01*
Y1021235D01*
Y1023815D01*
X598092D01*
Y1021150D01*
X598092D01*
X598092Y1020425D01*
X598092D01*
Y1008825D01*
X598092D01*
X598092Y1007725D01*
X598092D01*
Y996125D01*
X598092D01*
X598092Y995025D01*
X598092D01*
Y983425D01*
X608692D01*
D01*
X608692D01*
X609392Y982725D01*
Y980725D01*
X615392D01*
Y989225D01*
X619392D01*
Y980725D01*
X625392D01*
Y990650D01*
X625422D01*
Y990650D01*
X627783D01*
X628382Y989530D01*
X627672Y988468D01*
X627338Y986790D01*
X627672Y985112D01*
X628622Y983690D01*
X630045Y982739D01*
X631722Y982406D01*
X633400Y982739D01*
X634822Y983690D01*
X635773Y985112D01*
X636106Y986790D01*
X635773Y988468D01*
X635063Y989530D01*
X635662Y990650D01*
X638022D01*
Y1000500D01*
X638022D01*
X638022Y1001400D01*
X638022Y1001400D01*
Y1001400D01*
Y1010921D01*
X639196Y1011408D01*
X642422Y1008181D01*
Y1003200D01*
X639722D01*
Y997575D01*
X657722D01*
Y1003200D01*
X655022D01*
Y1011250D01*
X655022D01*
X655022Y1012150D01*
X655022Y1012150D01*
Y1012150D01*
Y1022000D01*
X655022D01*
X655022Y1022900D01*
X655022Y1022900D01*
Y1022900D01*
Y1032750D01*
X647114D01*
X636758Y1043106D01*
X635997Y1043614D01*
X635100Y1043793D01*
X635099Y1043793D01*
X608378D01*
X608378Y1043793D01*
X607480Y1043614D01*
X606720Y1043106D01*
X601734Y1038120D01*
X601226Y1037360D01*
X601047Y1036462D01*
X601047Y1036462D01*
Y1032750D01*
X598092D01*
Y1028505D01*
X589862D01*
Y1031085D01*
X581954D01*
X571248Y1041790D01*
X570487Y1042299D01*
X569590Y1042477D01*
X569590Y1042477D01*
X540577D01*
Y1049070D01*
X543532D01*
D01*
X543532D01*
X544232Y1048370D01*
Y1046370D01*
X550232D01*
Y1054870D01*
X554232D01*
Y1046370D01*
X560232D01*
Y1056295D01*
X560262D01*
Y1056295D01*
X562359D01*
X562958Y1055175D01*
X562512Y1054508D01*
X562178Y1052830D01*
X562512Y1051152D01*
X563462Y1049730D01*
X564884Y1048780D01*
X566562Y1048446D01*
X568240Y1048780D01*
X569662Y1049730D01*
X570613Y1051152D01*
X570947Y1052830D01*
X570613Y1054508D01*
X570167Y1055175D01*
X570766Y1056295D01*
X572862D01*
Y1066145D01*
X572862D01*
X572862Y1067045D01*
X572862Y1067045D01*
Y1067045D01*
Y1076566D01*
X574036Y1077053D01*
X577262Y1073826D01*
Y1068845D01*
X574562D01*
Y1063220D01*
X592562D01*
Y1068845D01*
X589862D01*
Y1076895D01*
X589862D01*
X589862Y1077795D01*
X589862Y1077795D01*
Y1077795D01*
Y1087645D01*
X589862D01*
X589862Y1088545D01*
X589862Y1088545D01*
Y1088545D01*
Y1091125D01*
X598092D01*
Y1088460D01*
X598092D01*
X598092Y1087735D01*
X598092D01*
Y1076135D01*
X598092D01*
X598092Y1075035D01*
X598092D01*
Y1063435D01*
X598092D01*
X598092Y1062335D01*
X598092D01*
Y1050735D01*
X608692D01*
D01*
X608692D01*
X609392Y1050035D01*
Y1048035D01*
X615392D01*
Y1056535D01*
X619392D01*
Y1048035D01*
X625392D01*
Y1057960D01*
X625422D01*
Y1057960D01*
X627783D01*
X628382Y1056840D01*
X627672Y1055778D01*
X627338Y1054100D01*
X627672Y1052422D01*
X628622Y1051000D01*
X630045Y1050050D01*
X631722Y1049716D01*
X633400Y1050050D01*
X634822Y1051000D01*
X635773Y1052422D01*
X636106Y1054100D01*
X635773Y1055778D01*
X635063Y1056840D01*
X635662Y1057960D01*
X638022D01*
Y1067810D01*
X638022D01*
X638022Y1068710D01*
X638022Y1068710D01*
Y1068710D01*
Y1078232D01*
X639196Y1078718D01*
X642422Y1075491D01*
Y1070510D01*
X639722D01*
Y1064885D01*
X657722D01*
Y1070510D01*
X655022D01*
Y1078560D01*
X655022D01*
X655022Y1079460D01*
X655022Y1079460D01*
Y1079460D01*
Y1089310D01*
X655022D01*
X655022Y1090210D01*
X655022Y1090210D01*
Y1090210D01*
Y1100060D01*
X647114D01*
X636758Y1110416D01*
X635997Y1110924D01*
X635100Y1111103D01*
X635099Y1111103D01*
X607108D01*
X606210Y1110924D01*
X605906Y1110721D01*
X605449Y1110416D01*
X605449Y1110416D01*
X601734Y1106701D01*
X601226Y1105940D01*
X601047Y1105042D01*
X601047Y1105042D01*
Y1100060D01*
X598092D01*
Y1095815D01*
X589862D01*
Y1098395D01*
X581954D01*
X570742Y1109607D01*
X569981Y1110115D01*
X569083Y1110294D01*
X569083Y1110294D01*
X540825D01*
Y1117255D01*
X543780D01*
D01*
X543780D01*
X544480Y1116555D01*
Y1114555D01*
X550480D01*
Y1123055D01*
X554480D01*
Y1114555D01*
X560480D01*
Y1124480D01*
X560510D01*
Y1124480D01*
X562343D01*
X562941Y1123360D01*
X562760Y1123088D01*
X562426Y1121410D01*
X562760Y1119732D01*
X563710Y1118310D01*
X565132Y1117359D01*
X566810Y1117026D01*
X568488Y1117359D01*
X569910Y1118310D01*
X570860Y1119732D01*
X571194Y1121410D01*
X570860Y1123088D01*
X570679Y1123360D01*
X571277Y1124480D01*
X573110D01*
Y1134330D01*
X573110D01*
X573110Y1135230D01*
X573110Y1135230D01*
Y1135230D01*
Y1144752D01*
X574283Y1145238D01*
X577510Y1142011D01*
Y1137030D01*
X574810D01*
Y1131405D01*
X592810D01*
Y1137030D01*
X590110D01*
Y1145080D01*
X590110D01*
X590110Y1145980D01*
X590110Y1145980D01*
Y1145980D01*
Y1155830D01*
X590110D01*
X590110Y1156730D01*
X590110Y1156730D01*
Y1156730D01*
Y1159310D01*
X598340D01*
Y1156645D01*
X598340D01*
X598340Y1155920D01*
X598340D01*
Y1144320D01*
X598340D01*
X598340Y1143220D01*
X598340D01*
Y1131620D01*
X598340D01*
X598340Y1130520D01*
X598340D01*
Y1118920D01*
X608940D01*
D01*
X608940D01*
X609640Y1118220D01*
Y1116220D01*
X615640D01*
Y1124720D01*
X619640D01*
Y1116220D01*
X625640D01*
Y1126145D01*
X625670D01*
Y1126145D01*
X627439D01*
X628038Y1125025D01*
X627920Y1124848D01*
X627586Y1123170D01*
X627920Y1121492D01*
X628870Y1120070D01*
X630292Y1119119D01*
X631970Y1118786D01*
X633648Y1119119D01*
X635070Y1120070D01*
X636021Y1121492D01*
X636354Y1123170D01*
X636021Y1124848D01*
X635902Y1125025D01*
X636501Y1126145D01*
X638270D01*
Y1135995D01*
X638270D01*
X638270Y1136895D01*
X638270Y1136895D01*
Y1136895D01*
Y1146416D01*
X639443Y1146903D01*
X642670Y1143676D01*
Y1138695D01*
X639970D01*
Y1133070D01*
X657970D01*
Y1138695D01*
X655270D01*
Y1146745D01*
X655270D01*
X655270Y1147645D01*
X655270Y1147645D01*
Y1147645D01*
Y1157495D01*
X655270D01*
X655270Y1158395D01*
X655270Y1158395D01*
Y1158395D01*
Y1168245D01*
X647361D01*
X636858Y1178748D01*
X636097Y1179257D01*
X635200Y1179435D01*
X635200Y1179435D01*
X608130D01*
X607233Y1179257D01*
X606928Y1179053D01*
X606472Y1178748D01*
X606472Y1178748D01*
X601982Y1174258D01*
X601473Y1173497D01*
X601295Y1172600D01*
X601295Y1172600D01*
Y1168245D01*
X598340D01*
Y1164000D01*
X590110D01*
Y1166580D01*
X582201D01*
X571103Y1177678D01*
X570342Y1178186D01*
X569445Y1178365D01*
X569445Y1178365D01*
X540825D01*
Y1184565D01*
X543780D01*
D01*
X543780D01*
X544480Y1183865D01*
Y1181865D01*
X550480D01*
Y1190365D01*
X554480D01*
Y1181865D01*
X560480D01*
Y1191790D01*
X560510D01*
Y1191790D01*
X562343D01*
X562941Y1190670D01*
X562760Y1190398D01*
X562426Y1188720D01*
X562760Y1187042D01*
X563710Y1185620D01*
X565132Y1184669D01*
X566810Y1184336D01*
X568488Y1184669D01*
X569910Y1185620D01*
X570860Y1187042D01*
X571194Y1188720D01*
X570860Y1190398D01*
X570679Y1190670D01*
X571277Y1191790D01*
X573110D01*
Y1201640D01*
X573110D01*
X573110Y1202540D01*
X573110Y1202540D01*
Y1202540D01*
Y1212061D01*
X574283Y1212548D01*
X577510Y1209321D01*
Y1204340D01*
X574810D01*
Y1198715D01*
X592810D01*
Y1204340D01*
X590110D01*
Y1212390D01*
X590110D01*
X590110Y1213290D01*
X590110Y1213290D01*
Y1213290D01*
Y1223140D01*
X590110D01*
X590110Y1224040D01*
X590110Y1224040D01*
Y1224040D01*
Y1226620D01*
X598340D01*
Y1223955D01*
X598340D01*
X598340Y1223230D01*
X598340D01*
Y1211630D01*
X598340D01*
X598340Y1210530D01*
X598340D01*
Y1198930D01*
X598340D01*
X598340Y1197830D01*
X598340D01*
Y1186230D01*
X608940D01*
D01*
X608940D01*
X609640Y1185530D01*
Y1183530D01*
X615640D01*
Y1192030D01*
X619640D01*
Y1183530D01*
X625640D01*
Y1193455D01*
X625670D01*
Y1193455D01*
X627767D01*
X628365Y1192335D01*
X627920Y1191668D01*
X627586Y1189990D01*
X627920Y1188312D01*
X628870Y1186890D01*
X630292Y1185939D01*
X631970Y1185606D01*
X633648Y1185939D01*
X635070Y1186890D01*
X636021Y1188312D01*
X636354Y1189990D01*
X636021Y1191668D01*
X635575Y1192335D01*
X636173Y1193455D01*
X638270D01*
Y1203305D01*
X638270D01*
X638270Y1204205D01*
X638270Y1204205D01*
Y1204205D01*
Y1213727D01*
X639443Y1214213D01*
X642670Y1210986D01*
Y1206005D01*
X639970D01*
Y1200380D01*
X657970D01*
Y1206005D01*
X655270D01*
Y1214055D01*
X655270D01*
X655270Y1214955D01*
X655270Y1214955D01*
Y1214955D01*
Y1224805D01*
X655270D01*
X655270Y1225705D01*
X655270Y1225705D01*
Y1225705D01*
Y1235555D01*
X647361D01*
X637945Y1244972D01*
X638431Y1246145D01*
X692145D01*
Y777855D01*
D02*
G37*
%LPC*%
G36*
X581562Y991910D02*
X574562D01*
Y986285D01*
X581562D01*
Y991910D01*
D02*
G37*
G36*
X570150Y918704D02*
X568472Y918370D01*
X567050Y917420D01*
X566099Y915998D01*
X565766Y914320D01*
X565805Y914122D01*
X564907Y913224D01*
X563650Y913474D01*
X561972Y913140D01*
X560550Y912190D01*
X559599Y910768D01*
X559266Y909090D01*
X558896Y908640D01*
X558150D01*
Y897890D01*
Y887140D01*
X563150D01*
Y889840D01*
X616150D01*
Y887140D01*
X620150D01*
Y897890D01*
Y908640D01*
X616150D01*
Y905940D01*
X611495D01*
Y909975D01*
X612250Y910480D01*
X613200Y911902D01*
X613534Y913580D01*
X613200Y915258D01*
X612250Y916680D01*
X610828Y917630D01*
X609150Y917964D01*
X607472Y917630D01*
X606050Y916680D01*
X605099Y915258D01*
X604766Y913580D01*
X604766Y913580D01*
X604766Y913580D01*
X604328Y912701D01*
D01*
X604328Y912701D01*
X602650Y913034D01*
X601393Y912784D01*
X600495Y913682D01*
X600534Y913880D01*
X600201Y915558D01*
X599250Y916980D01*
X597828Y917931D01*
X596150Y918264D01*
X594472Y917931D01*
X593050Y916980D01*
X592099Y915558D01*
X591766Y913880D01*
X591766Y913880D01*
X591766Y913880D01*
X591328Y913001D01*
D01*
X591328Y913001D01*
X589650Y913334D01*
X588393Y913084D01*
X587495Y913982D01*
X587534Y914180D01*
X587200Y915858D01*
X586250Y917280D01*
X584828Y918231D01*
X583150Y918564D01*
X581472Y918231D01*
X580050Y917280D01*
X579099Y915858D01*
X578766Y914180D01*
X578766Y914180D01*
X578766Y914180D01*
X578328Y913301D01*
D01*
X578328Y913301D01*
X576650Y913634D01*
X575426Y913391D01*
X574528Y914289D01*
X574534Y914320D01*
X574200Y915998D01*
X573250Y917420D01*
X571828Y918370D01*
X570150Y918704D01*
D02*
G37*
G36*
X592562Y991910D02*
X585562D01*
Y986285D01*
X592562D01*
Y991910D01*
D02*
G37*
G36*
X657722Y993575D02*
X650722D01*
Y987950D01*
X657722D01*
Y993575D01*
D02*
G37*
G36*
X646722D02*
X639722D01*
Y987950D01*
X646722D01*
Y993575D01*
D02*
G37*
G36*
X636650Y908640D02*
X631650D01*
Y899890D01*
X636650D01*
Y908640D01*
D02*
G37*
G36*
X554150Y895890D02*
X549150D01*
Y887140D01*
X554150D01*
Y895890D01*
D02*
G37*
G36*
X602650Y865444D02*
X600972Y865110D01*
X599550Y864160D01*
X598599Y862738D01*
X598266Y861060D01*
X598599Y859382D01*
X599550Y857960D01*
X600305Y857455D01*
Y854185D01*
X599837Y853872D01*
X599185Y853524D01*
X597828Y854431D01*
X596150Y854764D01*
X594472Y854431D01*
X593115Y853524D01*
X592463Y853872D01*
X591995Y854185D01*
Y857085D01*
X592750Y857590D01*
X593700Y859012D01*
X594034Y860690D01*
X593700Y862368D01*
X592750Y863790D01*
X591328Y864741D01*
X589650Y865074D01*
X587972Y864741D01*
X586550Y863790D01*
X585599Y862368D01*
X585266Y860690D01*
X585599Y859012D01*
X586550Y857590D01*
X587305Y857085D01*
Y854485D01*
X586837Y854172D01*
X586185Y853824D01*
X584828Y854731D01*
X583150Y855064D01*
X581472Y854731D01*
X580115Y853824D01*
X579463Y854172D01*
X578995Y854485D01*
Y857455D01*
X579750Y857960D01*
X580700Y859382D01*
X581034Y861060D01*
X580700Y862738D01*
X579750Y864160D01*
X578328Y865110D01*
X576650Y865444D01*
X574972Y865110D01*
X573550Y864160D01*
X572599Y862738D01*
X572266Y861060D01*
X572599Y859382D01*
X573550Y857960D01*
X574305Y857455D01*
Y854625D01*
X573837Y854312D01*
X573185Y853964D01*
X571828Y854870D01*
X570150Y855204D01*
X568472Y854870D01*
X567115Y853964D01*
X566463Y854312D01*
X565995Y854625D01*
Y856185D01*
X566750Y856690D01*
X567700Y858112D01*
X568034Y859790D01*
X567700Y861468D01*
X566750Y862890D01*
X565328Y863840D01*
X563650Y864174D01*
X561972Y863840D01*
X560550Y862890D01*
X559599Y861468D01*
X559266Y859790D01*
X559599Y858112D01*
X560550Y856690D01*
X561305Y856185D01*
Y853113D01*
X560089Y852744D01*
X559250Y854000D01*
X557828Y854950D01*
X556150Y855284D01*
X554472Y854950D01*
X553050Y854000D01*
X552099Y852578D01*
X551766Y850900D01*
X552099Y849222D01*
X552542Y848560D01*
X551943Y847440D01*
X551850D01*
Y831340D01*
X603150D01*
Y828640D01*
X607150D01*
Y839390D01*
Y850140D01*
X604995D01*
Y857455D01*
X605750Y857960D01*
X606701Y859382D01*
X607034Y861060D01*
X606701Y862738D01*
X605750Y864160D01*
X604328Y865110D01*
X602650Y865444D01*
D02*
G37*
G36*
X627650Y908640D02*
X624150D01*
Y897890D01*
Y887140D01*
X627650D01*
Y897890D01*
Y908640D01*
D02*
G37*
G36*
X554150D02*
X549150D01*
Y899890D01*
X554150D01*
Y908640D01*
D02*
G37*
G36*
X636650Y895890D02*
X631650D01*
Y887140D01*
X636650D01*
Y895890D01*
D02*
G37*
G36*
X581562Y1059220D02*
X574562D01*
Y1053595D01*
X581562D01*
Y1059220D01*
D02*
G37*
G36*
X581810Y1194715D02*
X574810D01*
Y1189090D01*
X581810D01*
Y1194715D01*
D02*
G37*
G36*
X657970Y1129070D02*
X650970D01*
Y1123445D01*
X657970D01*
Y1129070D01*
D02*
G37*
G36*
X592810Y1194715D02*
X585810D01*
Y1189090D01*
X592810D01*
Y1194715D01*
D02*
G37*
G36*
X657970Y1196380D02*
X650970D01*
Y1190755D01*
X657970D01*
Y1196380D01*
D02*
G37*
G36*
X646970D02*
X639970D01*
Y1190755D01*
X646970D01*
Y1196380D01*
D02*
G37*
G36*
Y1129070D02*
X639970D01*
Y1123445D01*
X646970D01*
Y1129070D01*
D02*
G37*
G36*
X646722Y1060885D02*
X639722D01*
Y1055260D01*
X646722D01*
Y1060885D01*
D02*
G37*
G36*
X592562Y1059220D02*
X585562D01*
Y1053595D01*
X592562D01*
Y1059220D01*
D02*
G37*
G36*
X657722Y1060885D02*
X650722D01*
Y1055260D01*
X657722D01*
Y1060885D01*
D02*
G37*
G36*
X592810Y1127405D02*
X585810D01*
Y1121780D01*
X592810D01*
Y1127405D01*
D02*
G37*
G36*
X581810D02*
X574810D01*
Y1121780D01*
X581810D01*
Y1127405D01*
D02*
G37*
%LPD*%
D10*
X566810Y1161655D02*
D03*
Y1150905D02*
D03*
Y1140155D02*
D03*
Y1129405D02*
D03*
X583810Y1161655D02*
D03*
Y1150905D02*
D03*
Y1140155D02*
D03*
Y1129405D02*
D03*
X566562Y1026160D02*
D03*
Y1015410D02*
D03*
Y1004660D02*
D03*
Y993910D02*
D03*
X583562Y1026160D02*
D03*
Y1015410D02*
D03*
Y1004660D02*
D03*
Y993910D02*
D03*
X566562Y1093470D02*
D03*
Y1082720D02*
D03*
Y1071970D02*
D03*
Y1061220D02*
D03*
X583562Y1093470D02*
D03*
Y1082720D02*
D03*
Y1071970D02*
D03*
Y1061220D02*
D03*
X631722Y1027825D02*
D03*
Y1017075D02*
D03*
Y1006325D02*
D03*
Y995575D02*
D03*
X648722Y1027825D02*
D03*
Y1017075D02*
D03*
Y1006325D02*
D03*
Y995575D02*
D03*
X566810Y1228965D02*
D03*
Y1218215D02*
D03*
Y1207465D02*
D03*
Y1196715D02*
D03*
X583810Y1228965D02*
D03*
Y1218215D02*
D03*
Y1207465D02*
D03*
Y1196715D02*
D03*
X631970Y1163320D02*
D03*
Y1152570D02*
D03*
Y1141820D02*
D03*
Y1131070D02*
D03*
X648970Y1163320D02*
D03*
Y1152570D02*
D03*
Y1141820D02*
D03*
Y1131070D02*
D03*
X631722Y1095135D02*
D03*
Y1084385D02*
D03*
Y1073635D02*
D03*
Y1062885D02*
D03*
X648722Y1095135D02*
D03*
Y1084385D02*
D03*
Y1073635D02*
D03*
Y1062885D02*
D03*
X631970Y1230630D02*
D03*
Y1219880D02*
D03*
Y1209130D02*
D03*
Y1198380D02*
D03*
X648970Y1230630D02*
D03*
Y1219880D02*
D03*
Y1209130D02*
D03*
Y1198380D02*
D03*
D11*
X552480Y1160780D02*
D03*
X538480D02*
D03*
X552480Y1148455D02*
D03*
X538480D02*
D03*
Y1190365D02*
D03*
X552480D02*
D03*
X603640Y1137420D02*
D03*
X617640D02*
D03*
X538480Y1135755D02*
D03*
X552480D02*
D03*
X603640Y1124720D02*
D03*
X617640D02*
D03*
X538480Y1123055D02*
D03*
X552480D02*
D03*
Y1228090D02*
D03*
X538480D02*
D03*
Y1203065D02*
D03*
X552480D02*
D03*
Y1215765D02*
D03*
X538480D02*
D03*
X603392Y1081935D02*
D03*
X617392D02*
D03*
X603640Y1192030D02*
D03*
X617640D02*
D03*
X603640Y1162445D02*
D03*
X617640D02*
D03*
X603392Y1069235D02*
D03*
X617392D02*
D03*
X603392Y1094260D02*
D03*
X617392D02*
D03*
X603392Y1056535D02*
D03*
X617392D02*
D03*
X603640Y1204730D02*
D03*
X617640D02*
D03*
Y1217430D02*
D03*
X603640D02*
D03*
X617640Y1229755D02*
D03*
X603640D02*
D03*
X538232Y1054870D02*
D03*
X552232D02*
D03*
X530210Y815340D02*
D03*
X544210D02*
D03*
X530210Y798830D02*
D03*
X544210D02*
D03*
X538232Y1025285D02*
D03*
X552232D02*
D03*
X538232Y987560D02*
D03*
X552232D02*
D03*
X538232Y1000260D02*
D03*
X552232D02*
D03*
X603392Y1001925D02*
D03*
X617392D02*
D03*
X603392Y1026950D02*
D03*
X617392D02*
D03*
X603392Y1014625D02*
D03*
X617392D02*
D03*
X538232Y1092595D02*
D03*
X552232D02*
D03*
X538232Y1080270D02*
D03*
X552232D02*
D03*
X538232Y1012960D02*
D03*
X552232D02*
D03*
X603392Y989225D02*
D03*
X617392D02*
D03*
X603640Y1150120D02*
D03*
X617640D02*
D03*
X538232Y1067570D02*
D03*
X552232D02*
D03*
D12*
X629650Y897890D02*
D03*
X556150D02*
D03*
X629650Y839390D02*
D03*
X556150D02*
D03*
D13*
X622150Y897890D02*
D03*
X615650D02*
D03*
X609150D02*
D03*
X602650D02*
D03*
X596150D02*
D03*
X589650D02*
D03*
X583150D02*
D03*
X576650D02*
D03*
X570150D02*
D03*
X563650D02*
D03*
X622150Y839390D02*
D03*
X615650D02*
D03*
X609150D02*
D03*
X602650D02*
D03*
X596150D02*
D03*
X589650D02*
D03*
X583150D02*
D03*
X576650D02*
D03*
X570150D02*
D03*
X563650D02*
D03*
D14*
X618490Y858520D02*
Y885190D01*
X609150Y849180D02*
X618490Y858520D01*
X609150Y839390D02*
Y849180D01*
Y830130D02*
Y839390D01*
X583562Y991232D02*
Y993910D01*
X570230Y977900D02*
X583562Y991232D01*
X561892Y977900D02*
X570230D01*
X552232Y987560D02*
X561892Y977900D01*
X607337Y979170D02*
X617392Y989225D01*
X598302Y979170D02*
X607337D01*
X583562Y993910D02*
X598302Y979170D01*
X633730Y977900D02*
X648722Y992892D01*
X628717Y977900D02*
X633730D01*
X617392Y989225D02*
X628717Y977900D01*
X648722Y992892D02*
Y995575D01*
X659130Y999490D02*
Y1052477D01*
X655215Y995575D02*
X659130Y999490D01*
X650232Y995575D02*
X655215D01*
X651969Y1059639D02*
X659130Y1052477D01*
X648722Y1060202D02*
Y1062885D01*
X635000Y1046480D02*
X648722Y1060202D01*
X627447Y1046480D02*
X635000D01*
X617392Y1056535D02*
X627447Y1046480D01*
X607337D02*
X617392Y1056535D01*
X598302Y1046480D02*
X607337D01*
X583562Y1061220D02*
X598302Y1046480D01*
X570230Y1045210D02*
X583562Y1058542D01*
X561892Y1045210D02*
X570230D01*
X552232Y1054870D02*
X561892Y1045210D01*
X583562Y1058542D02*
Y1061220D01*
X648722Y1062885D02*
X655215D01*
X660400Y1068070D01*
Y1121150D01*
X651380Y1130170D02*
X660400Y1121150D01*
X648970Y1127760D02*
Y1131070D01*
X637540Y1116330D02*
X648970Y1127760D01*
X626030Y1116330D02*
X637540D01*
X617640Y1124720D02*
X626030Y1116330D01*
X610870Y1115060D02*
X617640Y1121830D01*
X598155Y1115060D02*
X610870D01*
X583810Y1129405D02*
X598155Y1115060D01*
X583810Y1127370D02*
Y1129405D01*
X570230Y1113790D02*
X583810Y1127370D01*
X561745Y1113790D02*
X570230D01*
X552480Y1123055D02*
X561745Y1113790D01*
X660400Y1139190D02*
Y1186950D01*
X651380Y1130170D02*
X660400Y1139190D01*
X648970Y1198380D02*
X660400Y1186950D01*
X648970Y1195070D02*
Y1198380D01*
X636270Y1182370D02*
X648970Y1195070D01*
X627300Y1182370D02*
X636270D01*
X617640Y1192030D02*
X627300Y1182370D01*
X609250Y1183640D02*
X617640Y1192030D01*
X596885Y1183640D02*
X609250D01*
X583810Y1196715D02*
X596885Y1183640D01*
X583810Y1188330D02*
Y1196715D01*
X576580Y1181100D02*
X583810Y1188330D01*
X561745Y1181100D02*
X576580D01*
X552480Y1190365D02*
X561745Y1181100D01*
X617392Y989225D02*
Y1001925D01*
X617640Y1192030D02*
Y1204730D01*
X552480Y1190365D02*
Y1203065D01*
X617640Y1124720D02*
Y1137420D01*
X552232Y1054870D02*
Y1067570D01*
X552480Y1123055D02*
Y1135755D01*
X552232Y987560D02*
Y1000260D01*
X617392Y1056535D02*
Y1069235D01*
X568960Y806450D02*
X586740Y824230D01*
X603250D01*
X609150Y830130D01*
X622150Y897890D02*
X629650D01*
X556150Y887840D02*
Y897890D01*
X622150Y888850D02*
Y897890D01*
X556150Y887840D02*
X558800Y885190D01*
X618490D01*
X622150Y888850D01*
X552232Y901808D02*
Y987560D01*
Y901808D02*
X556150Y897890D01*
D15*
X617640Y1121830D02*
Y1124720D01*
D16*
X603392Y989225D02*
Y1001925D01*
Y1014625D01*
X647595Y1006325D02*
X648722D01*
X639022Y1014897D02*
X647595Y1006325D01*
X639022Y1014897D02*
Y1021653D01*
X632850Y1027825D02*
X639022Y1021653D01*
X631722Y1027825D02*
X632850D01*
X630595Y995575D02*
X631722D01*
X623692Y1002477D02*
X630595Y995575D01*
X623692Y1002477D02*
Y1008295D01*
X617392Y1014595D02*
X623692Y1008295D01*
X630595Y1006325D02*
X631722D01*
X624422Y1012497D02*
X630595Y1006325D01*
X624422Y1012497D02*
Y1019920D01*
X617392Y1026950D02*
X624422Y1019920D01*
X630842Y1198380D02*
X631970D01*
X624610Y1204612D02*
X630842Y1198380D01*
X624610Y1204612D02*
Y1210460D01*
X617640Y1217430D02*
X624610Y1210460D01*
X630842Y1209130D02*
X631970D01*
X624610Y1215362D02*
X630842Y1209130D01*
X624610Y1215362D02*
Y1222785D01*
X617640Y1229755D02*
X624610Y1222785D01*
X603640Y1192030D02*
Y1204730D01*
Y1217430D01*
X647842Y1209130D02*
X648970D01*
X639270Y1217702D02*
X647842Y1209130D01*
X639270Y1217702D02*
Y1224458D01*
X633098Y1230630D02*
X639270Y1224458D01*
X631970Y1230630D02*
X633098D01*
X538480Y1190365D02*
Y1203065D01*
Y1215765D01*
Y1228090D01*
X565682Y1196715D02*
X566810D01*
X559450Y1202947D02*
X565682Y1196715D01*
X559450Y1202947D02*
Y1208795D01*
X552480Y1215765D02*
X559450Y1208795D01*
X565682Y1207465D02*
X566810D01*
X559450Y1213697D02*
X565682Y1207465D01*
X559450Y1213697D02*
Y1221120D01*
X552480Y1228090D02*
X559450Y1221120D01*
X582682Y1207465D02*
X583810D01*
X574110Y1216037D02*
X582682Y1207465D01*
X574110Y1216037D02*
Y1222793D01*
X567938Y1228965D02*
X574110Y1222793D01*
X603640Y1124720D02*
Y1137420D01*
Y1150120D01*
X630842Y1131070D02*
X631970D01*
X624610Y1137302D02*
X630842Y1131070D01*
X624610Y1137302D02*
Y1143150D01*
X617640Y1150120D02*
X624610Y1143150D01*
X630842Y1141820D02*
X631970D01*
X624670Y1147992D02*
X630842Y1141820D01*
X624670Y1147992D02*
Y1155415D01*
X617640Y1162445D02*
X624670Y1155415D01*
X647842Y1141820D02*
X648970D01*
X639270Y1150392D02*
X647842Y1141820D01*
X639270Y1150392D02*
Y1157148D01*
X633098Y1163320D02*
X639270Y1157148D01*
X538232Y1054870D02*
Y1067570D01*
Y1080270D01*
Y1092595D01*
X565435Y1061220D02*
X566562D01*
X559202Y1067452D02*
X565435Y1061220D01*
X559202Y1067452D02*
Y1073300D01*
X552232Y1080270D02*
X559202Y1073300D01*
X565435Y1071970D02*
X566562D01*
X559262Y1078142D02*
X565435Y1071970D01*
X559262Y1078142D02*
Y1085565D01*
X552232Y1092595D02*
X559262Y1085565D01*
X582435Y1071970D02*
X583562D01*
X573862Y1080542D02*
X582435Y1071970D01*
X573862Y1080542D02*
Y1087298D01*
X567690Y1093470D02*
X573862Y1087298D01*
X538480Y1123055D02*
Y1135755D01*
Y1148455D01*
Y1160780D01*
X582682Y1140155D02*
X583810D01*
X574110Y1148727D02*
X582682Y1140155D01*
X574110Y1148727D02*
Y1155483D01*
X567938Y1161655D02*
X574110Y1155483D01*
X565682Y1129405D02*
X566810D01*
X558780Y1136307D02*
X565682Y1129405D01*
X558780Y1136307D02*
Y1142155D01*
X552480Y1148455D02*
X558780Y1142155D01*
X565682Y1140155D02*
X566810D01*
X559510Y1146327D02*
X565682Y1140155D01*
X559510Y1146327D02*
Y1153750D01*
X552480Y1160780D02*
X559510Y1153750D01*
X538232Y987560D02*
Y1000260D01*
Y1012960D01*
Y1025285D01*
X565435Y993910D02*
X566562D01*
X559262Y1000082D02*
X565435Y993910D01*
X559262Y1000082D02*
Y1005930D01*
X552232Y1012960D02*
X559262Y1005930D01*
X565435Y1004660D02*
X566562D01*
X558532Y1011562D02*
X565435Y1004660D01*
X558532Y1011562D02*
Y1018985D01*
X552232Y1025285D02*
X558532Y1018985D01*
X582435Y1004660D02*
X583562D01*
X573862Y1013232D02*
X582435Y1004660D01*
X573862Y1013232D02*
Y1019988D01*
X567690Y1026160D02*
X573862Y1019988D01*
X603392Y1056535D02*
Y1069235D01*
Y1081935D01*
X647595Y1073635D02*
X648722D01*
X639022Y1082207D02*
X647595Y1073635D01*
X639022Y1082207D02*
Y1088963D01*
X632850Y1095135D02*
X639022Y1088963D01*
X630595Y1062885D02*
X631722D01*
X623692Y1069787D02*
X630595Y1062885D01*
X623692Y1069787D02*
Y1075635D01*
X617392Y1081935D02*
X623692Y1075635D01*
X630595Y1073635D02*
X631722D01*
X624422Y1079807D02*
X630595Y1073635D01*
X624422Y1079807D02*
Y1087230D01*
X617392Y1094260D02*
X624422Y1087230D01*
X583810Y1228965D02*
X602850D01*
X603640Y1217430D02*
Y1229755D01*
X583810Y1161655D02*
X602850D01*
X603640Y1150120D02*
Y1162445D01*
X583562Y1093470D02*
X602602D01*
X603392Y1081935D02*
Y1094260D01*
X583562Y1026160D02*
X602602D01*
X603392Y1014625D02*
Y1026950D01*
X538232Y1092595D02*
X538480Y1092843D01*
X544210Y815340D02*
X563260Y796290D01*
X584200D01*
X594360Y806450D01*
X544210Y798830D02*
X550560Y792480D01*
X605790D01*
X619760Y806450D01*
X530210Y798830D02*
X532457D01*
X542107Y789180D01*
X627890D01*
X645160Y806450D01*
X530210Y798830D02*
Y815340D01*
X594360Y806450D02*
X615650Y827740D01*
Y839390D01*
X619760Y806450D02*
Y821690D01*
X622150Y824080D01*
Y839390D01*
X629650Y821960D02*
X645160Y806450D01*
X629650Y821960D02*
Y839390D01*
X530210Y979538D02*
X538232Y987560D01*
X530210Y815340D02*
Y979538D01*
X648722Y1017075D02*
Y1027825D01*
X583562Y1015410D02*
Y1026160D01*
X648722Y1084385D02*
Y1095135D01*
X583562Y1082720D02*
Y1093470D01*
X648970Y1152570D02*
Y1163320D01*
X583810Y1150905D02*
Y1161655D01*
X648970Y1219880D02*
Y1230630D01*
X583810Y1218215D02*
Y1228965D01*
X552480Y1228090D02*
Y1238220D01*
X617640Y1229755D02*
Y1239100D01*
X552480Y1160780D02*
Y1169670D01*
X617640Y1162445D02*
Y1171790D01*
X552232Y1092595D02*
Y1102142D01*
X617392Y1094260D02*
Y1103458D01*
X552232Y1025285D02*
Y1034832D01*
X617392Y1026950D02*
Y1036148D01*
X538480Y1228090D02*
Y1238250D01*
X543750Y1243520D01*
X569255D01*
X583810Y1228965D01*
X603640Y1229755D02*
Y1239240D01*
X608800Y1244400D01*
X635200D01*
X648970Y1230630D01*
X538480Y1176020D02*
X569445D01*
X538480Y1160780D02*
Y1176020D01*
Y1190365D01*
X569445Y1176020D02*
X583810Y1161655D01*
X603640Y1162445D02*
Y1172600D01*
X608130Y1177090D01*
X635200D01*
X648970Y1163320D01*
X538480Y1107949D02*
X569083D01*
X583562Y1093470D01*
X538480Y1092843D02*
Y1107949D01*
Y1123055D01*
X603392Y1094260D02*
Y1105042D01*
X607108Y1108758D01*
X635100D01*
X648722Y1095135D01*
X538232Y1040130D02*
X538234Y1040132D01*
X569590D01*
X583562Y1026160D01*
X538232Y1025285D02*
Y1040130D01*
Y1054870D01*
X603392Y1026950D02*
Y1036462D01*
X608378Y1041448D01*
X635100D01*
X648722Y1027825D01*
X566810Y1188720D02*
Y1196715D01*
X631970Y1189990D02*
Y1198380D01*
X566810Y1121410D02*
Y1129405D01*
X631970Y1123170D02*
Y1131070D01*
X566562Y1052830D02*
Y1061220D01*
X631722Y1054100D02*
Y1062885D01*
X566562Y985520D02*
Y993910D01*
X631722Y986790D02*
Y995575D01*
X556150Y839390D02*
Y850900D01*
X570150Y839390D02*
Y850820D01*
X576650Y839390D02*
Y861060D01*
X583150Y839390D02*
Y850680D01*
X596150Y839390D02*
Y850380D01*
X602650Y839390D02*
Y861060D01*
X563650Y897890D02*
Y909090D01*
X570150Y897890D02*
Y914320D01*
X576650Y897890D02*
Y909250D01*
X583150Y897890D02*
Y914180D01*
X589650Y897890D02*
Y908950D01*
X596150Y897890D02*
Y913880D01*
X602650Y897890D02*
Y908650D01*
X609150Y897890D02*
Y913580D01*
X589650Y839390D02*
Y860690D01*
X563650Y839390D02*
Y859790D01*
D17*
X645160Y806450D02*
D03*
D18*
X619760D02*
D03*
X594360D02*
D03*
X568960D02*
D03*
D19*
X552480Y1238220D02*
D03*
X617640Y1239100D02*
D03*
Y1171790D02*
D03*
X552232Y1102142D02*
D03*
X617392Y1103458D02*
D03*
X552232Y1034832D02*
D03*
X617392Y1036148D02*
D03*
X552480Y1169670D02*
D03*
X566810Y1188720D02*
D03*
X631970Y1189990D02*
D03*
X566810Y1121410D02*
D03*
X631970Y1123170D02*
D03*
X566562Y1052830D02*
D03*
X631722Y1054100D02*
D03*
X566562Y985520D02*
D03*
X631722Y986790D02*
D03*
X570150Y850820D02*
D03*
X583150Y850680D02*
D03*
X596150Y850380D02*
D03*
X563650Y909090D02*
D03*
X570150Y914320D02*
D03*
X576650Y909250D02*
D03*
X583150Y914180D02*
D03*
X589650Y908950D02*
D03*
X596150Y913880D02*
D03*
X602650Y908650D02*
D03*
X609150Y913580D02*
D03*
X556150Y850900D02*
D03*
X576650Y861060D02*
D03*
X589650Y860690D02*
D03*
X602650Y861060D02*
D03*
X563650Y859790D02*
D03*
M02*
