%FSLAX44Y44*%
%MOMM*%
G71*
G01*
G75*
G04 Layer_Color=8388736*
%ADD10R,0.8000X0.9000*%
%ADD11C,1.0000*%
%ADD12R,1.0000X0.7250*%
%ADD13R,0.6000X1.3500*%
%ADD14R,0.4000X1.3500*%
%ADD15C,0.5000*%
%ADD16C,0.2000*%
%ADD17C,0.2540*%
%ADD18R,1.5000X1.5000*%
%ADD19C,1.5000*%
%ADD20C,0.6000*%
%ADD21R,0.7800X0.8800*%
%ADD22C,0.9800*%
%ADD23R,0.9800X0.7050*%
%ADD24R,0.5800X1.3300*%
%ADD25R,0.3800X1.3300*%
%ADD26R,1.4800X1.4800*%
%ADD27C,1.4800*%
%ADD28C,0.5800*%
D21*
X539502Y958350D02*
D03*
X553502D02*
D03*
X539502Y983375D02*
D03*
X553502D02*
D03*
X539502Y945650D02*
D03*
X553502D02*
D03*
X553750Y1118870D02*
D03*
X539750D02*
D03*
X553750Y1106545D02*
D03*
X539750D02*
D03*
Y1148455D02*
D03*
X553750D02*
D03*
X604910Y1095510D02*
D03*
X618910D02*
D03*
X539750Y1093845D02*
D03*
X553750D02*
D03*
X604910Y1082810D02*
D03*
X618910D02*
D03*
X539750Y1081145D02*
D03*
X553750D02*
D03*
Y1186180D02*
D03*
X539750D02*
D03*
Y1161155D02*
D03*
X553750D02*
D03*
Y1173855D02*
D03*
X539750D02*
D03*
X604662Y1040025D02*
D03*
X618662D02*
D03*
X604910Y1150120D02*
D03*
X618910D02*
D03*
X604910Y1120535D02*
D03*
X618910D02*
D03*
X604662Y1027325D02*
D03*
X618662D02*
D03*
X604662Y1052350D02*
D03*
X618662D02*
D03*
X604662Y1014625D02*
D03*
X618662D02*
D03*
X604910Y1162820D02*
D03*
X618910D02*
D03*
Y1175520D02*
D03*
X604910D02*
D03*
X618910Y1187845D02*
D03*
X604910D02*
D03*
X539502Y1012960D02*
D03*
X553502D02*
D03*
X531480Y805180D02*
D03*
X545480D02*
D03*
X531480Y788670D02*
D03*
X545480D02*
D03*
X604662Y960015D02*
D03*
X618662D02*
D03*
X604662Y985040D02*
D03*
X618662D02*
D03*
X604662Y972715D02*
D03*
X618662D02*
D03*
X539502Y1050685D02*
D03*
X553502D02*
D03*
X539502Y1038360D02*
D03*
X553502D02*
D03*
X539502Y971050D02*
D03*
X553502D02*
D03*
X604662Y947315D02*
D03*
X618662D02*
D03*
X604910Y1108210D02*
D03*
X618910D02*
D03*
X539502Y1025660D02*
D03*
X553502D02*
D03*
D22*
X624840Y863600D02*
D03*
X610870D02*
D03*
X622300Y908050D02*
D03*
X641350D02*
D03*
D23*
X568080Y1119745D02*
D03*
Y1108995D02*
D03*
Y1098245D02*
D03*
Y1087495D02*
D03*
X585080Y1119745D02*
D03*
Y1108995D02*
D03*
Y1098245D02*
D03*
Y1087495D02*
D03*
X567832Y984250D02*
D03*
Y973500D02*
D03*
Y962750D02*
D03*
Y952000D02*
D03*
X584832Y984250D02*
D03*
Y973500D02*
D03*
Y962750D02*
D03*
Y952000D02*
D03*
X567832Y1051560D02*
D03*
Y1040810D02*
D03*
Y1030060D02*
D03*
Y1019310D02*
D03*
X584832Y1051560D02*
D03*
Y1040810D02*
D03*
Y1030060D02*
D03*
Y1019310D02*
D03*
X632992Y985915D02*
D03*
Y975165D02*
D03*
Y964415D02*
D03*
Y953665D02*
D03*
X649992Y985915D02*
D03*
Y975165D02*
D03*
Y964415D02*
D03*
Y953665D02*
D03*
X568080Y1187055D02*
D03*
Y1176305D02*
D03*
Y1165555D02*
D03*
Y1154805D02*
D03*
X585080Y1187055D02*
D03*
Y1176305D02*
D03*
Y1165555D02*
D03*
Y1154805D02*
D03*
X633240Y1121410D02*
D03*
Y1110660D02*
D03*
Y1099910D02*
D03*
Y1089160D02*
D03*
X650240Y1121410D02*
D03*
Y1110660D02*
D03*
Y1099910D02*
D03*
Y1089160D02*
D03*
X632992Y1053225D02*
D03*
Y1042475D02*
D03*
Y1031725D02*
D03*
Y1020975D02*
D03*
X649992Y1053225D02*
D03*
Y1042475D02*
D03*
Y1031725D02*
D03*
Y1020975D02*
D03*
X633240Y1188720D02*
D03*
Y1177970D02*
D03*
Y1167220D02*
D03*
Y1156470D02*
D03*
X650240Y1188720D02*
D03*
Y1177970D02*
D03*
Y1167220D02*
D03*
Y1156470D02*
D03*
D24*
X630920Y887730D02*
D03*
X557420D02*
D03*
X630920Y829230D02*
D03*
X557420D02*
D03*
D25*
X623420Y887730D02*
D03*
X616920D02*
D03*
X610420D02*
D03*
X603920D02*
D03*
X597420D02*
D03*
X590920D02*
D03*
X584420D02*
D03*
X577920D02*
D03*
X571420D02*
D03*
X564920D02*
D03*
X623420Y829230D02*
D03*
X616920D02*
D03*
X610420D02*
D03*
X603920D02*
D03*
X597420D02*
D03*
X590920D02*
D03*
X584420D02*
D03*
X577920D02*
D03*
X571420D02*
D03*
X564920D02*
D03*
D26*
X646430Y796290D02*
D03*
Y1226185D02*
D03*
D27*
X621030Y796290D02*
D03*
X595630D02*
D03*
X570230D02*
D03*
Y1226185D02*
D03*
X595630D02*
D03*
X621030D02*
D03*
D28*
X553750Y1196310D02*
D03*
X618910Y1197190D02*
D03*
Y1129880D02*
D03*
X553502Y1060232D02*
D03*
X618662Y1061548D02*
D03*
X553502Y992922D02*
D03*
X618662Y994238D02*
D03*
X553750Y1127760D02*
D03*
X568080Y1146810D02*
D03*
X633240Y1148080D02*
D03*
X568080Y1079500D02*
D03*
X633240Y1081260D02*
D03*
X567832Y1010920D02*
D03*
X632992Y1012190D02*
D03*
X567832Y943610D02*
D03*
X632992Y944880D02*
D03*
X571420Y840660D02*
D03*
X584420Y840520D02*
D03*
X597420Y840220D02*
D03*
X564920Y898930D02*
D03*
X571420Y904160D02*
D03*
X577920Y899090D02*
D03*
X584420Y904020D02*
D03*
X590920Y898790D02*
D03*
X597420Y903720D02*
D03*
X603920Y898490D02*
D03*
X610420Y903420D02*
D03*
X557420Y840740D02*
D03*
X577920Y850900D02*
D03*
X590920Y850530D02*
D03*
X603920Y850900D02*
D03*
X564920Y849630D02*
D03*
M02*
