%FSLAX44Y44*%
%MOMM*%
G71*
G01*
G75*
G04 Layer_Color=16711935*
%ADD10R,0.8000X0.9000*%
%ADD11C,1.0000*%
%ADD12R,1.0000X0.7250*%
%ADD13R,0.6000X1.3500*%
%ADD14R,0.4000X1.3500*%
%ADD15C,0.5000*%
%ADD16C,0.2000*%
%ADD17C,0.2540*%
%ADD18R,1.5000X1.5000*%
%ADD19C,1.5000*%
%ADD20C,0.6000*%
%ADD21R,0.7800X0.8800*%
%ADD22C,0.9800*%
%ADD23R,0.9800X0.7050*%
%ADD24R,0.5800X1.3300*%
%ADD25R,0.3800X1.3300*%
%ADD26R,1.4800X1.4800*%
%ADD27C,1.4800*%
%ADD28C,0.5800*%
D26*
X646430Y796290D02*
D03*
Y1226185D02*
D03*
D27*
X621030Y796290D02*
D03*
X595630D02*
D03*
X570230D02*
D03*
Y1226185D02*
D03*
X595630D02*
D03*
X621030D02*
D03*
D28*
X553750Y1196310D02*
D03*
X618910Y1197190D02*
D03*
Y1129880D02*
D03*
X553502Y1060232D02*
D03*
X618662Y1061548D02*
D03*
X553502Y992922D02*
D03*
X618662Y994238D02*
D03*
X553750Y1127760D02*
D03*
X568080Y1146810D02*
D03*
X633240Y1148080D02*
D03*
X568080Y1079500D02*
D03*
X633240Y1081260D02*
D03*
X567832Y1010920D02*
D03*
X632992Y1012190D02*
D03*
X567832Y943610D02*
D03*
X632992Y944880D02*
D03*
X571420Y840660D02*
D03*
X584420Y840520D02*
D03*
X597420Y840220D02*
D03*
X564920Y898930D02*
D03*
X571420Y904160D02*
D03*
X577920Y899090D02*
D03*
X584420Y904020D02*
D03*
X590920Y898790D02*
D03*
X597420Y903720D02*
D03*
X603920Y898490D02*
D03*
X610420Y903420D02*
D03*
X557420Y840740D02*
D03*
X577920Y850900D02*
D03*
X590920Y850530D02*
D03*
X603920Y850900D02*
D03*
X564920Y849630D02*
D03*
M02*
