%FSLAX44Y44*%
%MOMM*%
G71*
G01*
G75*
G04 Layer_Color=65535*
%ADD10R,0.8000X0.9000*%
%ADD11C,1.0000*%
%ADD12R,1.0000X0.7250*%
%ADD13R,0.6000X1.3500*%
%ADD14R,0.4000X1.3500*%
%ADD15C,0.5000*%
%ADD16C,0.2000*%
%ADD17C,0.2540*%
%ADD18R,1.5000X1.5000*%
%ADD19C,1.5000*%
%ADD20C,0.6000*%
D16*
X633170Y860105D02*
G03*
X633170Y856855I0J-1625D01*
G01*
X557530Y783590D02*
Y808990D01*
X659130D01*
X557530Y783590D02*
X659130D01*
Y808990D01*
X633170Y860105D02*
Y872630D01*
Y844330D02*
Y856855D01*
X555170Y844330D02*
X633170D01*
X555170D02*
Y872630D01*
X633170D01*
X659130Y1213485D02*
Y1238885D01*
X557530Y1213485D02*
X659130D01*
X557530Y1238885D02*
X659130D01*
X557530Y1213485D02*
Y1238885D01*
D17*
X627380Y883915D02*
Y873758D01*
X632458Y868680D01*
X637537Y873758D01*
Y883915D01*
X608327Y881376D02*
X605788Y883915D01*
X600709D01*
X598170Y881376D01*
Y871219D01*
X600709Y868680D01*
X605788D01*
X608327Y871219D01*
Y876298D01*
X603248D01*
X640080Y932175D02*
Y922018D01*
X645158Y916940D01*
X650237Y922018D01*
Y932175D01*
X629917Y929636D02*
X627378Y932175D01*
X622299D01*
X619760Y929636D01*
Y919479D01*
X622299Y916940D01*
X627378D01*
X629917Y919479D01*
Y924557D01*
X624838D01*
X534667Y957576D02*
X532127Y960115D01*
X527049D01*
X524510Y957576D01*
Y947419D01*
X527049Y944880D01*
X532127D01*
X534667Y947419D01*
X524510Y969010D02*
Y984245D01*
X532127D01*
X534667Y981706D01*
Y976628D01*
X532127Y974088D01*
X524510D01*
X529588D02*
X534667Y969010D01*
X524510Y1005835D02*
Y995678D01*
X529588Y990600D01*
X534667Y995678D01*
Y1005835D01*
X539745Y1003296D02*
X542284Y1005835D01*
X547363D01*
X549902Y1003296D01*
Y993139D01*
X547363Y990600D01*
X542284D01*
X539745Y993139D01*
Y1003296D01*
X655320Y1013455D02*
Y1003298D01*
X660398Y998220D01*
X665477Y1003298D01*
Y1013455D01*
X670555Y998220D02*
X675633D01*
X673094D01*
Y1013455D01*
X670555Y1010916D01*
X525780Y1073145D02*
Y1062988D01*
X530858Y1057910D01*
X535937Y1062988D01*
Y1073145D01*
X551172Y1057910D02*
X541015D01*
X551172Y1068067D01*
Y1070606D01*
X548633Y1073145D01*
X543554D01*
X541015Y1070606D01*
X655320Y1083305D02*
Y1073148D01*
X660398Y1068070D01*
X665477Y1073148D01*
Y1083305D01*
X670555Y1080766D02*
X673094Y1083305D01*
X678173D01*
X680712Y1080766D01*
Y1078227D01*
X678173Y1075687D01*
X675633D01*
X678173D01*
X680712Y1073148D01*
Y1070609D01*
X678173Y1068070D01*
X673094D01*
X670555Y1070609D01*
X525780Y1141725D02*
Y1131568D01*
X530858Y1126490D01*
X535937Y1131568D01*
Y1141725D01*
X548633Y1126490D02*
Y1141725D01*
X541015Y1134108D01*
X551172D01*
X655320Y1148075D02*
Y1137918D01*
X660398Y1132840D01*
X665477Y1137918D01*
Y1148075D01*
X680712D02*
X670555D01*
Y1140458D01*
X675633Y1142997D01*
X678173D01*
X680712Y1140458D01*
Y1135379D01*
X678173Y1132840D01*
X673094D01*
X670555Y1135379D01*
X525780Y1212845D02*
Y1202688D01*
X530858Y1197610D01*
X535937Y1202688D01*
Y1212845D01*
X551172D02*
X546093Y1210306D01*
X541015Y1205228D01*
Y1200149D01*
X543554Y1197610D01*
X548633D01*
X551172Y1200149D01*
Y1202688D01*
X548633Y1205228D01*
X541015D01*
X656590Y1214115D02*
Y1203958D01*
X661668Y1198880D01*
X666747Y1203958D01*
Y1214115D01*
X671825D02*
X681982D01*
Y1211576D01*
X671825Y1201419D01*
Y1198880D01*
M02*
