%FSLAX44Y44*%
%MOMM*%
G71*
G01*
G75*
G04 Layer_Physical_Order=2*
G04 Layer_Color=16711680*
%ADD10R,0.8000X0.9000*%
%ADD11C,1.0000*%
%ADD12R,1.0000X0.7250*%
%ADD13R,0.6000X1.3500*%
%ADD14R,0.4000X1.3500*%
%ADD15C,0.5000*%
%ADD16C,0.2000*%
%ADD17C,0.2540*%
%ADD18R,1.5000X1.5000*%
%ADD19C,1.5000*%
%ADD20C,0.6000*%
D16*
X537460Y1111470D02*
X553750Y1127760D01*
X537460Y860700D02*
Y1111470D01*
Y860700D02*
X557420Y840740D01*
X534160Y842460D02*
X560010Y816610D01*
X534160Y842460D02*
Y1184400D01*
X546070Y1196310D01*
X530860Y1185797D02*
X546673Y1201610D01*
X530860Y841093D02*
Y1185797D01*
Y841093D02*
X558643Y813310D01*
X541020Y1066800D02*
X553720Y1079500D01*
X541020Y873760D02*
Y1066800D01*
Y873760D02*
X564920Y849860D01*
X548130Y894590D02*
X556260Y886460D01*
X548130Y894590D02*
Y1002790D01*
X556260Y1010920D01*
X544830Y1051560D02*
X553502Y1060232D01*
X544830Y877570D02*
Y1051560D01*
Y877570D02*
X551180Y871220D01*
X574040Y886460D02*
X577920Y890340D01*
X556260Y886460D02*
X574040D01*
X571420Y896540D02*
Y904160D01*
X566420Y891540D02*
X571420Y896540D01*
X561340Y891540D02*
X566420D01*
X557530Y895350D02*
X561340Y891540D01*
X557530Y895350D02*
Y916940D01*
X584200Y943610D01*
X667170Y1197190D02*
X675640Y1188720D01*
Y844550D02*
Y1188720D01*
X645160Y814070D02*
X675640Y844550D01*
X659130Y1148080D02*
X671830Y1135380D01*
Y849630D02*
Y1135380D01*
X641350Y819150D02*
X671830Y849630D01*
X644310Y1129880D02*
X668020Y1106170D01*
Y869950D02*
Y1106170D01*
X657860Y859790D02*
X668020Y869950D01*
X629920Y1074420D02*
X660910Y1043430D01*
Y953910D02*
Y1043430D01*
X610420Y903420D02*
X660910Y953910D01*
X633240Y1081260D02*
X664210Y1050290D01*
Y881380D02*
Y1050290D01*
X645920Y863090D02*
X664210Y881380D01*
X584200Y943610D02*
Y1027085D01*
X564920Y898930D02*
Y909090D01*
X571500Y915670D01*
X582930D01*
X590550Y923290D01*
X590920Y898790D02*
X592120Y899990D01*
Y910477D01*
X600710Y919067D01*
X597420Y903720D02*
Y911110D01*
X618662Y932352D01*
X603920Y906180D02*
X656590Y958850D01*
Y1037590D01*
X560010Y816610D02*
X574040D01*
X584420Y826990D01*
Y840520D01*
X558643Y813310D02*
X575407D01*
X546070Y1196310D02*
X553750D01*
X546673Y1201610D02*
X560260D01*
X568080Y1193790D01*
Y1146810D02*
Y1193790D01*
X618910Y1197190D02*
X667170D01*
X609600Y814070D02*
X645160D01*
X597420Y826250D02*
X609600Y814070D01*
X597420Y826250D02*
Y840220D01*
X633240Y1148080D02*
X659130D01*
X613410Y819150D02*
X641350D01*
X603920Y828640D02*
X613410Y819150D01*
X603920Y828640D02*
Y850900D01*
X553720Y1079500D02*
X568080D01*
X551180Y871220D02*
X574040D01*
X584420Y881600D01*
Y904020D01*
X556260Y1010920D02*
X567832D01*
X577920Y890340D02*
Y899090D01*
X575407Y813310D02*
X589720Y827623D01*
Y850530D01*
X571420Y840660D02*
X576360Y845600D01*
X580115D01*
X583220Y848705D01*
Y852460D01*
X590550Y859790D01*
X657860D01*
X618910Y1129880D02*
X644310D01*
X589183Y863090D02*
X645920D01*
X577920Y851827D02*
X589183Y863090D01*
X584200Y1027085D02*
X618662Y1061548D01*
X590550Y923290D02*
Y994410D01*
X608330Y1012190D01*
X632992D01*
X618662Y932352D02*
Y994238D01*
X632992Y944880D02*
Y992608D01*
X622300Y1003300D02*
X632992Y992608D01*
X612140Y1003300D02*
X622300D01*
X600710Y991870D02*
X612140Y1003300D01*
X600710Y919067D02*
Y991870D01*
X553502Y992922D02*
X564932D01*
X574040Y1002030D01*
Y1042670D01*
X605790Y1074420D01*
X629920D01*
X603920Y898490D02*
Y906180D01*
X626110Y1068070D02*
X656590Y1037590D01*
X612140Y1068070D02*
X626110D01*
X579120Y1035050D02*
X612140Y1068070D01*
X579120Y954898D02*
Y1035050D01*
X567832Y943610D02*
X579120Y954898D01*
D18*
X646430Y796290D02*
D03*
Y1226185D02*
D03*
D19*
X621030Y796290D02*
D03*
X595630D02*
D03*
X570230D02*
D03*
Y1226185D02*
D03*
X595630D02*
D03*
X621030D02*
D03*
D20*
X553750Y1196310D02*
D03*
X618910Y1197190D02*
D03*
Y1129880D02*
D03*
X553502Y1060232D02*
D03*
X618662Y1061548D02*
D03*
X553502Y992922D02*
D03*
X618662Y994238D02*
D03*
X553750Y1127760D02*
D03*
X568080Y1146810D02*
D03*
X633240Y1148080D02*
D03*
X568080Y1079500D02*
D03*
X633240Y1081260D02*
D03*
X567832Y1010920D02*
D03*
X632992Y1012190D02*
D03*
X567832Y943610D02*
D03*
X632992Y944880D02*
D03*
X571420Y840660D02*
D03*
X584420Y840520D02*
D03*
X597420Y840220D02*
D03*
X564920Y898930D02*
D03*
X571420Y904160D02*
D03*
X577920Y899090D02*
D03*
X584420Y904020D02*
D03*
X590920Y898790D02*
D03*
X597420Y903720D02*
D03*
X603920Y898490D02*
D03*
X610420Y903420D02*
D03*
X557420Y840740D02*
D03*
X577920Y850900D02*
D03*
X590920Y850530D02*
D03*
X603920Y850900D02*
D03*
X564920Y849630D02*
D03*
M02*
