%FSLAX44Y44*%
%MOMM*%
G71*
G01*
G75*
G04 Layer_Color=8388736*
%ADD10R,1.0000X0.7250*%
%ADD11R,0.8000X0.9000*%
%ADD12R,0.6000X1.3500*%
%ADD13R,0.4000X1.3500*%
%ADD14C,0.5000*%
%ADD15C,0.2540*%
%ADD16C,0.2000*%
%ADD17R,1.5000X1.5000*%
%ADD18C,1.5000*%
%ADD19C,0.6000*%
%ADD20R,0.9800X0.7050*%
%ADD21R,0.7800X0.8800*%
%ADD22R,0.5800X1.3300*%
%ADD23R,0.3800X1.3300*%
%ADD24R,1.4800X1.4800*%
%ADD25C,1.4800*%
%ADD26C,0.5800*%
D20*
X566810Y1161655D02*
D03*
Y1150905D02*
D03*
Y1140155D02*
D03*
Y1129405D02*
D03*
X583810Y1161655D02*
D03*
Y1150905D02*
D03*
Y1140155D02*
D03*
Y1129405D02*
D03*
X566562Y1026160D02*
D03*
Y1015410D02*
D03*
Y1004660D02*
D03*
Y993910D02*
D03*
X583562Y1026160D02*
D03*
Y1015410D02*
D03*
Y1004660D02*
D03*
Y993910D02*
D03*
X566562Y1093470D02*
D03*
Y1082720D02*
D03*
Y1071970D02*
D03*
Y1061220D02*
D03*
X583562Y1093470D02*
D03*
Y1082720D02*
D03*
Y1071970D02*
D03*
Y1061220D02*
D03*
X631722Y1027825D02*
D03*
Y1017075D02*
D03*
Y1006325D02*
D03*
Y995575D02*
D03*
X648722Y1027825D02*
D03*
Y1017075D02*
D03*
Y1006325D02*
D03*
Y995575D02*
D03*
X566810Y1228965D02*
D03*
Y1218215D02*
D03*
Y1207465D02*
D03*
Y1196715D02*
D03*
X583810Y1228965D02*
D03*
Y1218215D02*
D03*
Y1207465D02*
D03*
Y1196715D02*
D03*
X631970Y1163320D02*
D03*
Y1152570D02*
D03*
Y1141820D02*
D03*
Y1131070D02*
D03*
X648970Y1163320D02*
D03*
Y1152570D02*
D03*
Y1141820D02*
D03*
Y1131070D02*
D03*
X631722Y1095135D02*
D03*
Y1084385D02*
D03*
Y1073635D02*
D03*
Y1062885D02*
D03*
X648722Y1095135D02*
D03*
Y1084385D02*
D03*
Y1073635D02*
D03*
Y1062885D02*
D03*
X631970Y1230630D02*
D03*
Y1219880D02*
D03*
Y1209130D02*
D03*
Y1198380D02*
D03*
X648970Y1230630D02*
D03*
Y1219880D02*
D03*
Y1209130D02*
D03*
Y1198380D02*
D03*
D21*
X552480Y1160780D02*
D03*
X538480D02*
D03*
X552480Y1148455D02*
D03*
X538480D02*
D03*
Y1190365D02*
D03*
X552480D02*
D03*
X603640Y1137420D02*
D03*
X617640D02*
D03*
X538480Y1135755D02*
D03*
X552480D02*
D03*
X603640Y1124720D02*
D03*
X617640D02*
D03*
X538480Y1123055D02*
D03*
X552480D02*
D03*
Y1228090D02*
D03*
X538480D02*
D03*
Y1203065D02*
D03*
X552480D02*
D03*
Y1215765D02*
D03*
X538480D02*
D03*
X603392Y1081935D02*
D03*
X617392D02*
D03*
X603640Y1192030D02*
D03*
X617640D02*
D03*
X603640Y1162445D02*
D03*
X617640D02*
D03*
X603392Y1069235D02*
D03*
X617392D02*
D03*
X603392Y1094260D02*
D03*
X617392D02*
D03*
X603392Y1056535D02*
D03*
X617392D02*
D03*
X603640Y1204730D02*
D03*
X617640D02*
D03*
Y1217430D02*
D03*
X603640D02*
D03*
X617640Y1229755D02*
D03*
X603640D02*
D03*
X538232Y1054870D02*
D03*
X552232D02*
D03*
X530210Y815340D02*
D03*
X544210D02*
D03*
X530210Y798830D02*
D03*
X544210D02*
D03*
X538232Y1025285D02*
D03*
X552232D02*
D03*
X538232Y987560D02*
D03*
X552232D02*
D03*
X538232Y1000260D02*
D03*
X552232D02*
D03*
X603392Y1001925D02*
D03*
X617392D02*
D03*
X603392Y1026950D02*
D03*
X617392D02*
D03*
X603392Y1014625D02*
D03*
X617392D02*
D03*
X538232Y1092595D02*
D03*
X552232D02*
D03*
X538232Y1080270D02*
D03*
X552232D02*
D03*
X538232Y1012960D02*
D03*
X552232D02*
D03*
X603392Y989225D02*
D03*
X617392D02*
D03*
X603640Y1150120D02*
D03*
X617640D02*
D03*
X538232Y1067570D02*
D03*
X552232D02*
D03*
D22*
X629650Y897890D02*
D03*
X556150D02*
D03*
X629650Y839390D02*
D03*
X556150D02*
D03*
D23*
X622150Y897890D02*
D03*
X615650D02*
D03*
X609150D02*
D03*
X602650D02*
D03*
X596150D02*
D03*
X589650D02*
D03*
X583150D02*
D03*
X576650D02*
D03*
X570150D02*
D03*
X563650D02*
D03*
X622150Y839390D02*
D03*
X615650D02*
D03*
X609150D02*
D03*
X602650D02*
D03*
X596150D02*
D03*
X589650D02*
D03*
X583150D02*
D03*
X576650D02*
D03*
X570150D02*
D03*
X563650D02*
D03*
D24*
X645160Y806450D02*
D03*
D25*
X619760D02*
D03*
X594360D02*
D03*
X568960D02*
D03*
D26*
X552480Y1238220D02*
D03*
X617640Y1239100D02*
D03*
Y1171790D02*
D03*
X552232Y1102142D02*
D03*
X617392Y1103458D02*
D03*
X552232Y1034832D02*
D03*
X617392Y1036148D02*
D03*
X552480Y1169670D02*
D03*
X566810Y1188720D02*
D03*
X631970Y1189990D02*
D03*
X566810Y1121410D02*
D03*
X631970Y1123170D02*
D03*
X566562Y1052830D02*
D03*
X631722Y1054100D02*
D03*
X566562Y985520D02*
D03*
X631722Y986790D02*
D03*
X570150Y850820D02*
D03*
X583150Y850680D02*
D03*
X596150Y850380D02*
D03*
X563650Y909090D02*
D03*
X570150Y914320D02*
D03*
X576650Y909250D02*
D03*
X583150Y914180D02*
D03*
X589650Y908950D02*
D03*
X596150Y913880D02*
D03*
X602650Y908650D02*
D03*
X609150Y913580D02*
D03*
X556150Y850900D02*
D03*
X576650Y861060D02*
D03*
X589650Y860690D02*
D03*
X602650Y861060D02*
D03*
X563650Y859790D02*
D03*
M02*
