%FSLAX44Y44*%
%MOMM*%
G71*
G01*
G75*
G04 Layer_Color=65535*
%ADD10R,1.0000X0.7250*%
%ADD11R,0.8000X0.9000*%
%ADD12R,0.6000X1.3500*%
%ADD13R,0.4000X1.3500*%
%ADD14C,0.5000*%
%ADD15C,0.2540*%
%ADD16C,0.2000*%
%ADD17R,1.5000X1.5000*%
%ADD18C,1.5000*%
%ADD19C,0.6000*%
D15*
X646430Y863600D02*
Y878835D01*
X651508Y873757D01*
X656587Y878835D01*
Y863600D01*
X661665D02*
X666743D01*
X664204D01*
Y878835D01*
X661665Y876296D01*
X664210Y800100D02*
Y815335D01*
X671827D01*
X674367Y812796D01*
Y807718D01*
X671827Y805178D01*
X664210D01*
X679445Y800100D02*
X684523D01*
X681984D01*
Y815335D01*
X679445Y812796D01*
X510540Y1049015D02*
Y1038858D01*
X515618Y1033780D01*
X520697Y1038858D01*
Y1049015D01*
X525775Y1046476D02*
X528314Y1049015D01*
X533393D01*
X535932Y1046476D01*
Y1036319D01*
X533393Y1033780D01*
X528314D01*
X525775Y1036319D01*
Y1046476D01*
X665480Y1022345D02*
Y1012188D01*
X670558Y1007110D01*
X675637Y1012188D01*
Y1022345D01*
X680715Y1007110D02*
X685793D01*
X683254D01*
Y1022345D01*
X680715Y1019806D01*
X509270Y1115055D02*
Y1104898D01*
X514348Y1099820D01*
X519427Y1104898D01*
Y1115055D01*
X534662Y1099820D02*
X524505D01*
X534662Y1109977D01*
Y1112516D01*
X532123Y1115055D01*
X527044D01*
X524505Y1112516D01*
X665480Y1090925D02*
Y1080768D01*
X670558Y1075690D01*
X675637Y1080768D01*
Y1090925D01*
X680715Y1088386D02*
X683254Y1090925D01*
X688333D01*
X690872Y1088386D01*
Y1085847D01*
X688333Y1083307D01*
X685793D01*
X688333D01*
X690872Y1080768D01*
Y1078229D01*
X688333Y1075690D01*
X683254D01*
X680715Y1078229D01*
X511810Y1182365D02*
Y1172208D01*
X516888Y1167130D01*
X521967Y1172208D01*
Y1182365D01*
X534663Y1167130D02*
Y1182365D01*
X527045Y1174747D01*
X537202D01*
X665480Y1156965D02*
Y1146808D01*
X670558Y1141730D01*
X675637Y1146808D01*
Y1156965D01*
X690872D02*
X680715D01*
Y1149348D01*
X685793Y1151887D01*
X688333D01*
X690872Y1149348D01*
Y1144269D01*
X688333Y1141730D01*
X683254D01*
X680715Y1144269D01*
X509270Y1247135D02*
Y1236978D01*
X514348Y1231900D01*
X519427Y1236978D01*
Y1247135D01*
X534662D02*
X529583Y1244596D01*
X524505Y1239518D01*
Y1234439D01*
X527044Y1231900D01*
X532123D01*
X534662Y1234439D01*
Y1236978D01*
X532123Y1239518D01*
X524505D01*
X665480Y1221735D02*
Y1211578D01*
X670558Y1206500D01*
X675637Y1211578D01*
Y1221735D01*
X680715D02*
X690872D01*
Y1219196D01*
X680715Y1209039D01*
Y1206500D01*
D16*
X631900Y870265D02*
G03*
X631900Y867015I0J-1625D01*
G01*
X556260Y793750D02*
Y819150D01*
X657860D01*
X556260Y793750D02*
X657860D01*
Y819150D01*
X631900Y870265D02*
Y882790D01*
Y854490D02*
Y867015D01*
X553900Y854490D02*
X631900D01*
X553900D02*
Y882790D01*
X631900D01*
M02*
