%FSLAX44Y44*%
%MOMM*%
G71*
G01*
G75*
G04 Layer_Color=16711935*
%ADD10R,1.0000X0.7250*%
%ADD11R,0.8000X0.9000*%
%ADD12R,0.6000X1.3500*%
%ADD13R,0.4000X1.3500*%
%ADD14C,0.5000*%
%ADD15C,0.2540*%
%ADD16C,0.2000*%
%ADD17R,1.5000X1.5000*%
%ADD18C,1.5000*%
%ADD19C,0.6000*%
%ADD20R,0.9800X0.7050*%
%ADD21R,0.7800X0.8800*%
%ADD22R,0.5800X1.3300*%
%ADD23R,0.3800X1.3300*%
%ADD24R,1.4800X1.4800*%
%ADD25C,1.4800*%
%ADD26C,0.5800*%
D24*
X645160Y806450D02*
D03*
D25*
X619760D02*
D03*
X594360D02*
D03*
X568960D02*
D03*
D26*
X552480Y1238220D02*
D03*
X617640Y1239100D02*
D03*
Y1171790D02*
D03*
X552232Y1102142D02*
D03*
X617392Y1103458D02*
D03*
X552232Y1034832D02*
D03*
X617392Y1036148D02*
D03*
X552480Y1169670D02*
D03*
X566810Y1188720D02*
D03*
X631970Y1189990D02*
D03*
X566810Y1121410D02*
D03*
X631970Y1123170D02*
D03*
X566562Y1052830D02*
D03*
X631722Y1054100D02*
D03*
X566562Y985520D02*
D03*
X631722Y986790D02*
D03*
X570150Y850820D02*
D03*
X583150Y850680D02*
D03*
X596150Y850380D02*
D03*
X563650Y909090D02*
D03*
X570150Y914320D02*
D03*
X576650Y909250D02*
D03*
X583150Y914180D02*
D03*
X589650Y908950D02*
D03*
X596150Y913880D02*
D03*
X602650Y908650D02*
D03*
X609150Y913580D02*
D03*
X556150Y850900D02*
D03*
X576650Y861060D02*
D03*
X589650Y860690D02*
D03*
X602650Y861060D02*
D03*
X563650Y859790D02*
D03*
M02*
