M48
;Layer_Color=9474304
;FILE_FORMAT=4:4
METRIC,LZ
;TYPE=PLATED
T1F00S00C0.3000
T2F00S00C0.9000
%
T01
X0055615Y008509
X0057015Y0085082
X0058315Y0085068
X0059615Y0085038
X0058965Y0086069
X0057665Y0086106
X0056365Y0085979
X0060265Y0086106
Y0090865
X0060915Y0091358
X0059615Y0091388
X0058965Y0090895
X0058315Y0091418
X0057665Y0090925
X0057015Y0091432
X0056365Y0090909
X00566562Y0098552
X00552232Y01034832
X00566562Y0105283
X00552232Y01102142
X0056681Y0112141
X0055248Y0116967
X0056681Y0118872
X0063197Y0118999
X0061764Y0117179
X0063197Y0112317
X00617392Y01103458
X00631722Y010541
X00617392Y01036148
X00631722Y0098679
X0061764Y012391
X0055248Y0123822
T02
X0056896Y0080645
X0059436
X0061976
X0064516
M30
